<?xml version="1.0" encoding="utf-8"?>
<!-- Generator: Adobe Illustrator 17.0.0, SVG Export Plug-In . SVG Version: 6.00 Build 0)  -->
<!DOCTYPE svg PUBLIC "-//W3C//DTD SVG 1.1//EN" "http://www.w3.org/Graphics/SVG/1.1/DTD/svg11.dtd">
<svg version="1.1" id="Layer_1" xmlns="http://www.w3.org/2000/svg" xmlns:xlink="http://www.w3.org/1999/xlink" x="0px" y="0px"
	 width="1137.469px" height="443px" viewBox="0 0 1137.469 443" enable-background="new 0 0 1137.469 443" xml:space="preserve">
<path fill="#FFFFFF" d="M16.517,14.149l6.872-6.889c0.148-0.148,0.148-0.389,0-0.537l-0.98-0.983
	c-0.071-0.071-0.168-0.111-0.268-0.111c-0.101,0-0.197,0.04-0.268,0.111L15,12.629l-6.872-6.89c-0.143-0.143-0.394-0.143-0.536,0
	l-0.98,0.983c-0.148,0.148-0.148,0.389,0,0.537l6.872,6.889l-6.873,6.891c-0.148,0.149-0.148,0.389,0,0.538l0.98,0.983
	c0.071,0.071,0.168,0.111,0.268,0.111c0.101,0,0.197-0.04,0.268-0.111L15,15.671l6.872,6.889c0.071,0.071,0.168,0.111,0.268,0.111
	c0.101,0,0.197-0.04,0.268-0.111l0.98-0.983c0.148-0.149,0.148-0.389,0-0.538L16.517,14.149z"/>
<rect fill="none" width="30" height="30"/>
<rect y="30" fill="none" width="30" height="30"/>
<rect y="60" fill="none" width="30" height="30"/>
<rect y="90" fill="none" width="30" height="30"/>
<rect y="120" fill="none" width="30" height="30"/>
<rect y="150" fill="none" width="30" height="30"/>
<rect y="180" fill="none" width="30" height="30"/>
<rect y="210" fill="none" width="30" height="30"/>
<rect y="240" fill="none" width="30" height="30"/>
<rect x="30" fill="none" width="30" height="30"/>
<rect x="30" y="30" fill="none" width="30" height="30"/>
<rect x="30" y="60" fill="none" width="30" height="30"/>
<rect x="30" y="90" fill="none" width="30" height="30"/>
<rect x="30" y="120" fill="none" width="30" height="30"/>
<rect x="30" y="150" fill="none" width="30" height="30"/>
<rect x="30" y="180" fill="none" width="30" height="30"/>
<rect x="30" y="210" fill="none" width="30" height="30"/>
<rect x="30" y="240" fill="none" width="30" height="30"/>
<rect x="60" fill="none" width="30" height="30"/>
<rect x="60" y="30" fill="none" width="30" height="30"/>
<rect x="60" y="60" fill="none" width="30" height="30"/>
<rect x="60" y="90" fill="none" width="30" height="30"/>
<rect x="60" y="120" fill="none" width="30" height="30"/>
<rect x="60" y="150" fill="none" width="30" height="30"/>
<rect x="60" y="180" fill="none" width="30" height="30"/>
<rect x="60" y="210" fill="none" width="30" height="30"/>
<rect x="60" y="240" fill="none" width="30" height="30"/>
<rect x="90" fill="none" width="30" height="30"/>
<rect x="90" y="30" fill="none" width="30" height="30"/>
<rect x="90" y="60" fill="none" width="30" height="30"/>
<rect x="90" y="90" fill="none" width="30" height="30"/>
<rect x="90" y="120" fill="none" width="30" height="30"/>
<rect x="90" y="150" fill="none" width="30" height="30"/>
<rect x="90" y="180" fill="none" width="30" height="30"/>
<rect x="90" y="210" fill="none" width="30" height="30"/>
<rect x="90" y="240" fill="none" width="30" height="30"/>
<rect x="120" fill="none" width="30" height="30"/>
<rect x="120" y="30" fill="none" width="30" height="30"/>
<rect x="120" y="60" fill="none" width="30" height="30"/>
<rect x="120" y="90" fill="none" width="30" height="30"/>
<rect x="120" y="120" fill="none" width="30" height="30"/>
<rect x="120" y="150" fill="none" width="30" height="30"/>
<rect x="120" y="180" fill="none" width="30" height="30"/>
<rect x="120" y="210" fill="none" width="30" height="30"/>
<rect x="120" y="240" fill="none" width="30" height="30"/>
<rect x="150" fill="none" width="30" height="30"/>
<rect x="150" y="30" fill="none" width="30" height="30"/>
<rect x="150" y="60" fill="none" width="30" height="30"/>
<rect x="150" y="90" fill="none" width="30" height="30"/>
<rect x="150" y="120" fill="none" width="30" height="30"/>
<rect x="150" y="150" fill="none" width="30" height="30"/>
<rect x="150" y="180" fill="none" width="30" height="30"/>
<rect x="150" y="210" fill="none" width="30" height="30"/>
<rect x="150" y="240" fill="none" width="30" height="30"/>
<rect x="180" fill="none" width="30" height="30"/>
<rect x="180" y="30" fill="none" width="30" height="30"/>
<rect x="180" y="60" fill="none" width="30" height="30"/>
<rect x="180" y="90" fill="none" width="30" height="30"/>
<rect x="180" y="120" fill="none" width="30" height="30"/>
<rect x="180" y="150" fill="none" width="30" height="30"/>
<rect x="180" y="180" fill="none" width="30" height="30"/>
<rect x="180" y="210" fill="none" width="30" height="30"/>
<rect x="180" y="240" fill="none" width="30" height="30"/>
<rect x="210" fill="none" width="30" height="30"/>
<rect x="210" y="30" fill="none" width="30" height="30"/>
<rect x="210" y="60" fill="none" width="30" height="30"/>
<rect x="210" y="90" fill="none" width="30" height="30"/>
<rect x="210" y="120" fill="none" width="30" height="30"/>
<rect x="210" y="150" fill="none" width="30" height="30"/>
<rect x="210" y="180" fill="none" width="30" height="30"/>
<rect x="210" y="210" fill="none" width="30" height="30"/>
<rect x="210" y="240" fill="none" width="30" height="30"/>
<rect x="240" fill="none" width="30" height="30"/>
<rect x="240" y="30" fill="none" width="30" height="30"/>
<rect x="240" y="60" fill="none" width="30" height="30"/>
<rect x="240" y="90" fill="none" width="30" height="30"/>
<rect x="240" y="120" fill="none" width="30" height="30"/>
<rect x="240" y="150" fill="none" width="30" height="30"/>
<rect x="240" y="180" fill="none" width="30" height="30"/>
<rect x="240" y="210" fill="none" width="30" height="30"/>
<rect x="240" y="240" fill="none" width="30" height="30"/>
<rect x="270" fill="none" width="30" height="30"/>
<rect x="270" y="30" fill="none" width="30" height="30"/>
<rect x="270" y="60" fill="none" width="30" height="30"/>
<rect x="270" y="90" fill="none" width="30" height="30"/>
<rect x="270" y="120" fill="none" width="30" height="30"/>
<rect x="270" y="150" fill="none" width="30" height="30"/>
<rect x="270" y="180" fill="none" width="30" height="30"/>
<rect x="270" y="210" fill="none" width="30" height="30"/>
<rect x="270" y="240" fill="none" width="30" height="30"/>
<rect x="300" fill="none" width="30" height="30"/>
<rect x="300" y="30" fill="none" width="30" height="30"/>
<rect x="300" y="60" fill="none" width="30" height="30"/>
<rect x="300" y="90" fill="none" width="30" height="30"/>
<rect x="300" y="120" fill="none" width="30" height="30"/>
<rect x="300" y="150" fill="none" width="30" height="30"/>
<rect x="300" y="180" fill="none" width="30" height="30"/>
<rect x="300" y="210" fill="none" width="30" height="30"/>
<rect x="300" y="240" fill="none" width="30" height="30"/>
<rect x="330" fill="none" width="30" height="30"/>
<rect x="330" y="30" fill="none" width="30" height="30"/>
<rect x="360" fill="none" width="30" height="30"/>
<rect x="360" y="30" fill="none" width="30" height="30"/>
<rect x="390" fill="none" width="30" height="30"/>
<rect x="390" y="30" fill="none" width="30" height="30"/>
<rect x="420" fill="none" width="30" height="30"/>
<rect x="420" y="30" fill="none" width="30" height="30"/>
<rect x="450" fill="none" width="30" height="30"/>
<rect x="450" y="30" fill="none" width="30" height="30"/>
<rect x="480" fill="none" width="30" height="30"/>
<rect x="480" y="30" fill="none" width="30" height="30"/>
<rect x="510" fill="none" width="30" height="30"/>
<rect x="510" y="30" fill="none" width="30" height="30"/>
<rect x="540" y="30" fill="none" width="30" height="30"/>
<rect x="540" fill="none" width="30" height="30"/>
<rect x="570" fill="none" width="30" height="30"/>
<rect x="600" fill="none" width="30" height="30"/>
<rect x="630" fill="none" width="30" height="30"/>
<rect x="660" fill="none" width="30" height="30"/>
<rect x="690" fill="none" width="30" height="30"/>
<rect x="570" y="30" fill="none" width="30" height="30"/>
<rect x="600" y="30" fill="none" width="30" height="30"/>
<rect x="570" y="60" fill="none" width="30" height="30"/>
<rect x="360" y="60" fill="none" width="30" height="30"/>
<rect x="360" y="90" fill="none" width="30" height="30"/>
<rect x="390" y="60" fill="none" width="30" height="30"/>
<rect x="390" y="90" fill="none" width="30" height="30"/>
<rect x="420" y="60" fill="none" width="30" height="30"/>
<g>
	<rect x="450" y="60" fill="none" width="30" height="30"/>
	<rect x="480" y="60" fill="none" width="30" height="30"/>
	<rect x="450" y="90" fill="none" width="30" height="30"/>
	<rect x="480" y="90" fill="none" width="30" height="30"/>
</g>
<g>
	<rect x="510" y="60" fill="none" width="30" height="30"/>
	<rect x="540" y="60" fill="none" width="30" height="30"/>
	<rect x="510" y="90" fill="none" width="30" height="30"/>
	<rect x="540" y="90" fill="none" width="30" height="30"/>
</g>
<rect x="420" y="90" fill="none" width="30" height="30"/>
<rect x="330" y="60" fill="none" width="30" height="30"/>
<rect x="330" y="90" fill="none" width="30" height="30"/>
<rect x="330" y="120" fill="none" width="30" height="30"/>
<rect x="330" y="150" fill="none" width="30" height="30"/>
<rect x="330" y="180" fill="none" width="30" height="30"/>
<rect x="330" y="210" fill="none" width="30" height="30"/>
<rect x="330" y="240" fill="none" width="30" height="30"/>
<g>
	<path opacity="0.27" fill="#0084AE" enable-background="new    " d="M75,135c35.346,0,64,28.654,64,64s-28.654,64-64,64
		s-64-28.654-64-64S39.654,135,75,135z"/>
	<path fill="none" stroke="#0084AE" stroke-miterlimit="10" d="M75,135c35.346,0,64,28.654,64,64s-28.654,64-64,64s-64-28.654-64-64
		S39.654,135,75,135z"/>
</g>
<path fill="none" d="M25.318,54.614l-5.105-5.106c1.369-1.574,2.199-3.629,2.199-5.874c0-4.943-4.019-8.959-8.956-8.959
	C8.514,34.674,4.5,38.695,4.5,43.632s4.019,8.957,8.956,8.957c2.245,0,4.299-0.829,5.873-2.199l5.105,5.105
	c0.121,0.121,0.284,0.187,0.443,0.187s0.321-0.061,0.443-0.187C25.561,55.257,25.561,54.855,25.318,54.614z M5.753,43.632
	c0-4.249,3.455-7.701,7.698-7.701c4.248,0,7.699,3.457,7.699,7.701s-3.451,7.705-7.699,7.705
	C9.209,51.338,5.753,47.882,5.753,43.632z"/>
<path fill="none" d="M567.284,26.232l-6.077-6.079c1.63-1.874,2.617-4.32,2.617-6.992c0-5.885-4.785-10.665-10.663-10.665
	C547.279,2.494,542.5,7.281,542.5,13.159s4.785,10.663,10.661,10.663c2.672,0,5.117-0.988,6.991-2.617l6.077,6.078
	c0.144,0.144,0.338,0.222,0.527,0.222s0.383-0.072,0.527-0.222C567.572,26.997,567.572,26.519,567.284,26.232z M543.991,13.159
	c0-5.059,4.113-9.168,9.164-9.168c5.057,0,9.165,4.115,9.165,9.168c0,5.052-4.109,9.172-9.165,9.172
	C548.106,22.332,543.991,18.217,543.991,13.159z"/>
<path fill="#E13333" d="M237.284,56.411l-6.077-6.079c1.63-1.874,2.617-4.32,2.617-6.992c0-5.885-4.785-10.665-10.663-10.665
	c-5.883-0.001-10.662,4.786-10.662,10.663s4.785,10.663,10.662,10.663c2.672,0,5.117-0.987,6.991-2.617l6.077,6.078
	c0.144,0.144,0.338,0.222,0.527,0.222s0.383-0.072,0.527-0.222C237.572,57.176,237.572,56.698,237.284,56.411z M213.991,43.338
	c0-5.059,4.113-9.168,9.164-9.168c5.057,0,9.165,4.115,9.165,9.168c0,5.052-4.109,9.172-9.165,9.172
	C218.106,52.511,213.991,48.396,213.991,43.338z"/>
<path fill="#8E8E8E" d="M27.284,116.232l-6.077-6.079c1.63-1.874,2.617-4.32,2.617-6.992c0-5.885-4.785-10.665-10.662-10.665
	C7.279,92.494,2.5,97.281,2.5,103.159s4.785,10.663,10.662,10.663c2.672,0,5.117-0.987,6.991-2.617l6.077,6.078
	c0.144,0.144,0.338,0.222,0.527,0.222s0.383-0.072,0.527-0.222C27.572,116.997,27.572,116.519,27.284,116.232z M3.991,103.159
	c0-5.059,4.113-9.168,9.164-9.168c5.057,0,9.165,4.115,9.165,9.168c0,5.052-4.109,9.172-9.165,9.172
	C8.106,112.332,3.991,108.217,3.991,103.159z"/>
<path fill="#8D8D8D" d="M54.223,7.179c-1.152-1.144-2.677-1.769-4.305-1.769s-3.158,0.63-4.31,1.774l-0.602,0.597l-0.611-0.606
	c-1.152-1.144-2.686-1.778-4.314-1.778c-1.623,0-3.153,0.629-4.3,1.769C34.63,8.309,33.995,9.828,34,11.445
	c0,1.616,0.639,3.131,1.791,4.275l8.759,8.698c0.121,0.12,0.284,0.185,0.443,0.185s0.322-0.06,0.443-0.18l8.778-8.685
	C55.366,14.595,56,13.075,56,11.459C56.005,9.842,55.375,8.323,54.223,7.179z M53.327,14.853l-8.335,8.245l-8.316-8.258
	c-0.914-0.908-1.418-2.112-1.418-3.395s0.499-2.488,1.413-3.391c0.909-0.903,2.122-1.403,3.409-1.403c1.292,0,2.509,0.5,3.423,1.408
	l1.054,1.047c0.247,0.245,0.644,0.245,0.891,0l1.045-1.038c0.914-0.908,2.131-1.408,3.419-1.408c1.287,0,2.5,0.5,3.414,1.403
	c0.914,0.908,1.413,2.112,1.413,3.395C54.745,12.742,54.242,13.946,53.327,14.853z"/>
<path fill="#E42424" d="M60,105l-2.45-2.283c-9.1-7.5-15.05-12.554-15.05-18.75c0-5.054,4.2-8.967,9.625-8.967
	c2.975,0,5.95,1.304,7.875,3.424C61.925,76.305,64.9,75,67.875,75c5.425,0,9.625,3.913,9.625,8.967c0,6.195-5.95,11.25-15.05,18.75
	L60,105z"/>
<g>
	<path fill="#FFFFFF" d="M103.821,11.501c-0.175-0.368-0.615-0.52-0.978-0.348l-2.293,1.09l-2.393-1.436l2.394,0.702l-0.93-1.353
		c-0.342-0.498-1.024-0.624-1.522-0.282l-1.608,1.106c-0.498,0.343-0.624,1.024-0.281,1.522l0.059,0.085h1.703l-0.482-0.469
		l2.643,1.586c0.2,0.12,0.424,0.141,0.693,0.033l2.648-1.258C103.839,12.305,103.995,11.867,103.821,11.501z"/>
	<path fill="#FFFFFF" d="M96.711,6.442c0.894,0,1.62,0.725,1.62,1.62c0,0.894-0.725,1.619-1.62,1.619
		c-0.895,0-1.62-0.725-1.62-1.619C95.092,7.167,95.817,6.442,96.711,6.442z"/>
	<path fill="#FFFFFF" d="M113.789,17.966c0.756-1.285,1.194-2.688,1.302-4.172c0.004-0.053-0.015-0.104-0.051-0.143
		c-0.036-0.038-0.086-0.061-0.139-0.061h-1.1c0-0.874,0-1.422,0-2.283c0-1.04-0.846-1.886-1.886-1.886
		c-1.058,0-1.886,0.805-1.886,1.833c0,0.292,0.237,0.529,0.529,0.529s0.529-0.237,0.529-0.529c0-0.443,0.356-0.776,0.829-0.776
		c0.457,0,0.829,0.372,0.829,0.829c0,0.861,0,1.411,0,2.283h-9.969l-1.648,0.783c-0.607,0.289-1.241,0.074-1.486-0.164l-0.636-0.618
		h-3.542c-0.053,0-0.103,0.022-0.139,0.06c-0.036,0.039-0.054,0.091-0.05,0.144c0.108,1.483,0.546,2.887,1.302,4.172
		c0.396,0.673,0.913,1.255,1.512,1.727c-0.296,0.331-0.491,0.547-0.795,0.887c-0.283,0.316-0.256,0.8,0.059,1.082
		c0.316,0.283,0.8,0.256,1.083-0.059c0.363-0.404,0.126-0.141,0.991-1.105c0.781,0.346,1.636,0.534,2.514,0.534h6.487
		c0.877,0,1.732-0.188,2.514-0.534c0.868,0.968,0.623,0.695,0.991,1.105c0.282,0.315,0.767,0.342,1.082,0.059
		c0.316-0.282,0.342-0.767,0.06-1.082c-0.127-0.141-0.106-0.118-0.795-0.887C112.877,19.222,113.393,18.64,113.789,17.966z"/>
</g>
<g>
	<path fill="#FFFFFF" d="M129.077,12.878c-0.168,0.438-0.202,0.87-0.102,1.306h4.549c0.1-0.436,0.066-0.868-0.102-1.306
		C131.98,12.715,130.52,12.715,129.077,12.878z"/>
	<path fill="#FFFFFF" d="M128.32,12.205c0.072-0.146,0.211-0.247,0.371-0.267c1.698-0.216,3.421-0.216,5.119,0
		c0.16,0.021,0.299,0.121,0.371,0.267c0.322,0.656,0.429,1.318,0.325,1.978h0.99c-0.105-0.66,0.003-1.322,0.325-1.978
		c0.072-0.146,0.211-0.247,0.371-0.267c1.698-0.216,3.421-0.216,5.119,0c0.16,0.021,0.299,0.121,0.371,0.267
		c0.322,0.656,0.429,1.318,0.325,1.978h1.264V9.126c-5.345-2.167-11.193-2.167-16.538,0v5.057h1.264
		C127.89,13.523,127.998,12.861,128.32,12.205z"/>
	<path fill="#FFFFFF" d="M136.577,12.878c-0.168,0.438-0.202,0.87-0.102,1.306h4.549c0.1-0.436,0.066-0.868-0.102-1.306
		C139.479,12.715,138.02,12.715,136.577,12.878z"/>
	<path fill="#FFFFFF" d="M125.087,21.122v2.847c0,0.271,0.215,0.49,0.481,0.49c0.266,0,0.481-0.219,0.481-0.49v-2.732h-0.362
		C125.475,21.238,125.273,21.197,125.087,21.122z"/>
	<path fill="#FFFFFF" d="M144.313,15.164h-18.625c-0.38,0-0.687,0.313-0.687,0.7v3.693c0,0.387,0.308,0.7,0.687,0.7h18.625
		c0.38,0,0.687-0.313,0.687-0.7v-3.693C145,15.478,144.692,15.164,144.313,15.164z"/>
	<path fill="#FFFFFF" d="M144.313,21.238h-0.362v2.732c0,0.271,0.215,0.49,0.481,0.49c0.266,0,0.481-0.219,0.481-0.49v-2.847
		C144.727,21.197,144.524,21.238,144.313,21.238z"/>
</g>
<path fill="#FFFFFF" d="M173.092,7.51L175,7.507V3.706c0-0.15-0.09-0.286-0.228-0.343s-0.297-0.026-0.403,0.08L155.108,22.7
	c-0.106,0.106-0.138,0.266-0.081,0.405s0.192,0.23,0.342,0.23h19.261c0.204,0,0.37-0.167,0.37-0.372v-1.31l-1.921,0.003h-0.001
	c-0.272,0-0.492-0.221-0.493-0.495c0-0.274,0.22-0.496,0.492-0.496L175,20.661V19.03l-1.931,0.003h-0.001
	c-0.272,0-0.492-0.221-0.493-0.495s0.22-0.496,0.492-0.496L175,18.039v-1.642l-1.909,0.003h-0.001c-0.272,0-0.492-0.221-0.493-0.495
	c-0.001-0.273,0.22-0.496,0.492-0.496l1.91-0.003v-1.641l-1.918,0.003h-0.001c-0.272,0-0.492-0.222-0.493-0.495
	c-0.001-0.274,0.22-0.496,0.492-0.496l1.92-0.003v-1.611l-1.912,0.003h-0.001c-0.272,0-0.492-0.221-0.493-0.495
	c0-0.274,0.22-0.496,0.492-0.496L175,10.171V8.499l-1.906,0.003h-0.001c-0.272,0-0.492-0.222-0.493-0.495
	C172.6,7.733,172.82,7.511,173.092,7.51z M170.497,18.827h-5.144l5.144-5.142V18.827L170.497,18.827z"/>
<path fill="#FFFFFF" d="M75.315,22.784l-2.061-6.036l-6.038-2.065c-0.925-0.315-0.963-1.607-0.059-1.978l14.879-6.122
	c0.87-0.357,1.739,0.513,1.382,1.382l-6.125,14.878C76.923,23.747,75.63,23.707,75.315,22.784z"/>
<path fill="#8E8E8E" d="M202.546,8.658c-0.943-0.928-2.19-1.434-3.522-1.434s-2.583,0.511-3.526,1.439l-0.492,0.485l-0.5-0.492
	c-0.943-0.928-2.198-1.442-3.53-1.442c-1.328,0-2.58,0.511-3.518,1.434c-0.943,0.928-1.462,2.159-1.458,3.47
	c0,1.311,0.523,2.539,1.465,3.466l7.167,7.053c0.099,0.098,0.233,0.15,0.362,0.15c0.13,0,0.263-0.049,0.363-0.146l7.182-7.042
	c0.943-0.928,1.461-2.159,1.461-3.47C204.004,10.818,203.489,9.586,202.546,8.658z M201.814,14.881l-6.819,6.685l-6.804-6.696
	c-0.748-0.736-1.16-1.713-1.16-2.753s0.408-2.017,1.156-2.749c0.744-0.732,1.736-1.138,2.79-1.138c1.057,0,2.053,0.405,2.801,1.142
	l0.863,0.849c0.202,0.199,0.527,0.199,0.729,0l0.855-0.841c0.748-0.736,1.744-1.142,2.797-1.142c1.053,0,2.045,0.406,2.793,1.138
	c0.748,0.736,1.156,1.713,1.156,2.753C202.974,13.169,202.561,14.146,201.814,14.881z"/>
<path fill="#FFFFFF" d="M596.319,66.046c-1.414-1.392-3.285-2.151-5.283-2.151c-1.998,0-3.874,0.766-5.289,2.158l-0.738,0.728
	l-0.75-0.738c-1.414-1.392-3.297-2.163-5.295-2.163c-1.992,0-3.87,0.766-5.277,2.151c-1.414,1.392-2.193,3.238-2.187,5.205
	c0,1.966,0.784,3.808,2.198,5.199l10.75,10.579c0.148,0.147,0.349,0.225,0.543,0.225c0.195,0,0.395-0.073,0.544-0.219l10.773-10.563
	c1.414-1.392,2.191-3.238,2.191-5.205C598.506,69.286,597.733,67.438,596.319,66.046z M595.221,75.38l-10.228,10.027l-10.206-10.044
	c-1.122-1.104-1.74-2.569-1.74-4.129s0.612-3.025,1.734-4.123c1.116-1.098,2.604-1.707,4.185-1.707c1.586,0,3.079,0.607,4.201,1.713
	l1.294,1.273c0.303,0.299,0.79,0.299,1.094,0l1.282-1.261c1.122-1.104,2.616-1.713,4.195-1.713s3.068,0.609,4.19,1.707
	c1.122,1.104,1.734,2.569,1.734,4.129C596.961,72.812,596.341,74.278,595.221,75.38z"/>
<g>
	<path fill="#8E8E8E" d="M229.45,7.701c-1.138,0-2.068,0.936-2.068,2.081c0,1.144,0.931,2.08,2.068,2.08s2.068-0.936,2.068-2.08
		C231.518,8.638,230.587,7.701,229.45,7.701z M229.45,11.03c-0.683,0-1.241-0.562-1.241-1.248c0-0.687,0.558-1.248,1.241-1.248
		c0.682,0,1.241,0.561,1.241,1.248S230.132,11.03,229.45,11.03z"/>
	<path fill="#8E8E8E" d="M231.932,5.226h-5.584c-0.558,0-1.076,0.208-1.448,0.603l-8.294,8.3c-0.807,0.812-0.807,2.122,0,2.934
		l5.543,5.554c0.393,0.395,0.91,0.603,1.469,0.603c0.559,0,1.076-0.208,1.469-0.603l8.294-8.342
		c0.393-0.374,0.621-0.894,0.621-1.435V7.306C234,6.162,233.069,5.226,231.932,5.226z M233.173,12.84
		c0,0.312-0.124,0.624-0.372,0.832l-8.315,8.363c-0.228,0.228-0.538,0.353-0.869,0.353s-0.641-0.125-0.869-0.353l-5.564-5.555
		c-0.476-0.479-0.476-1.269,0-1.768l8.294-8.3c0.228-0.229,0.538-0.354,0.869-0.354h5.584c0.683,0,1.241,0.562,1.241,1.248v5.534
		H233.173z"/>
</g>
<path fill="#838383" d="M252.162,7.431c0,0.559,0,3.053,0,3.053H250v3.733h2.162v11.094h4.44V14.217h2.979
	c0,0,0.279-1.79,0.414-3.748c-0.388,0-3.377,0-3.377,0s0-2.172,0-2.552c0-0.382,0.484-0.895,0.962-0.895s1.486,0,2.419,0
	c0-0.509,0-2.265,0-3.887c-1.246,0-2.664,0-3.289,0C252.052,3.136,252.162,6.872,252.162,7.431z"/>
<g>
	<path fill="#838383" d="M276.918,10.879h-3.134c-0.431,0-0.783,0.348-0.783,0.776v13.973c0,0.428,0.351,0.776,0.783,0.776h3.134
		c0.432,0,0.783-0.348,0.783-0.776V11.655C277.701,11.227,277.349,10.879,276.918,10.879z"/>
	<path fill="#838383" d="M295.044,10.879c-0.126-0.021-6.035,0-6.035,0l0.825-2.231c0.569-1.54,0.201-3.893-1.379-4.729
		c-0.515-0.272-1.233-0.409-1.813-0.264c-0.332,0.083-0.624,0.301-0.798,0.593c-0.2,0.336-0.18,0.728-0.251,1.1
		c-0.181,0.945-0.631,1.843-1.329,2.517c-1.216,1.175-4.995,4.566-4.995,4.566v12.42h13.059c1.762,0.001,2.917-1.948,2.048-3.471
		c1.036-0.657,1.39-2.042,0.784-3.105c1.036-0.657,1.39-2.041,0.783-3.105C297.73,14.036,297.132,11.229,295.044,10.879z"/>
</g>
<g>
	<path fill="#838383" d="M304.056,8.095l9.365,7.365c0.425,0.333,1.01,0.482,1.579,0.454c0.568,0.028,1.153-0.12,1.578-0.454
		l9.365-7.365c0.749-0.587,0.58-1.067-0.373-1.067h-10.569h-10.57C303.477,7.027,303.308,7.508,304.056,8.095z"/>
	<path fill="#838383" d="M326.618,10.038l-10.234,7.715c-0.383,0.285-0.884,0.424-1.384,0.418c-0.5,0.006-1.002-0.133-1.384-0.418
		l-10.235-7.715C302.622,9.465,302,9.773,302,10.719v12.657c0,0.946,0.78,1.721,1.734,1.721H315h11.266
		c0.953,0,1.734-0.775,1.734-1.721V10.719C328,9.773,327.378,9.465,326.618,10.038z"/>
</g>
<g>
	<path fill="#848484" d="M39.308,35.503h-4.001c-0.445,0-0.807,0.332-0.807,0.74v17.513c0,0.408,0.362,0.74,0.807,0.74h4.001
		c0.445,0,0.807-0.332,0.807-0.74c0-4.378,0-17.513,0-17.513C40.115,35.835,39.753,35.503,39.308,35.503z M39.308,53.946h-4.001
		c-0.114,0-0.207-0.085-0.207-0.19V36.244c0-0.105,0.093-0.19,0.207-0.19h4.001c0.114,0,0.207,0.085,0.207,0.19v3.666H36.79
		c-0.166,0-0.3,0.123-0.3,0.275c0,0.153,0.134,0.275,0.3,0.275h2.725v0.971h-1.499c-0.165,0-0.3,0.123-0.3,0.276
		c0,0.152,0.134,0.275,0.3,0.275h1.499v0.971H36.79c-0.166,0-0.3,0.123-0.3,0.275s0.134,0.276,0.3,0.276h2.725v0.97h-1.499
		c-0.165,0-0.3,0.123-0.3,0.275s0.134,0.275,0.3,0.275h1.499v0.97H36.79c-0.166,0-0.3,0.124-0.3,0.275
		c0,0.152,0.134,0.276,0.3,0.276h2.725v0.97h-1.499c-0.165,0-0.3,0.124-0.3,0.276s0.134,0.275,0.3,0.275h1.499v0.97H36.79
		c-0.166,0-0.3,0.123-0.3,0.275s0.134,0.275,0.3,0.275h2.725v0.97h-1.5c-0.166,0-0.3,0.124-0.3,0.276s0.134,0.275,0.3,0.275h1.5
		v0.97h-2.724c-0.166,0-0.3,0.123-0.3,0.275s0.134,0.276,0.3,0.276h2.724v1.13C39.515,53.861,39.422,53.946,39.308,53.946z"/>
	<path fill="#848484" d="M37.308,38.663c0.567,0,1.028-0.424,1.028-0.943c0-0.52-0.461-0.942-1.028-0.942s-1.028,0.423-1.028,0.942
		S36.741,38.663,37.308,38.663z M37.308,37.327c0.236,0,0.428,0.176,0.428,0.392c0,0.217-0.192,0.392-0.428,0.392
		s-0.428-0.176-0.428-0.392C36.88,37.503,37.072,37.327,37.308,37.327z"/>
	<path fill="#848484" d="M45.45,51.445c0.935,0,3.74,0,3.74,0h0.001c0.166,0,0.3-0.123,0.3-0.275c0-0.065-0.027-0.124-0.066-0.172
		c-0.973-1.205-2.763-3.717-3.728-4.927c-0.079-0.099-0.211-0.142-0.336-0.106c-0.125,0.037-0.21,0.142-0.21,0.263
		c0,0,0,3.706,0,4.941C45.15,51.322,45.284,51.445,45.45,51.445z M45.75,47.107l2.866,3.787H45.75V47.107L45.75,47.107z"/>
	<path fill="#848484" d="M55.436,54.05c-3.56-4.494-13.545-18.423-13.545-18.423c-0.074-0.101-0.21-0.145-0.336-0.11
		c-0.126,0.036-0.212,0.143-0.212,0.263c0,0,0,13.829,0,18.439c0,0.152,0.134,0.275,0.3,0.275h13.556c0,0,0,0,0.001,0
		c0.166,0,0.3-0.124,0.3-0.275C55.5,54.156,55.474,54.098,55.436,54.05z M41.943,53.944V52.62h1.348c0.166,0,0.3-0.123,0.3-0.275
		s-0.134-0.275-0.3-0.275h-1.348v-0.695h0.627c0.166,0,0.3-0.123,0.3-0.276c0-0.152-0.134-0.275-0.3-0.275h-0.627V50.13h1.348
		c0.166,0,0.3-0.124,0.3-0.276s-0.134-0.275-0.3-0.275h-1.348v-0.695h0.627c0.166,0,0.3-0.122,0.3-0.275s-0.134-0.276-0.3-0.276
		h-0.627v-0.695h1.348c0.166,0,0.3-0.123,0.3-0.275c0-0.153-0.134-0.275-0.3-0.275h-1.348v-0.695h0.627c0.166,0,0.3-0.123,0.3-0.276
		c0-0.152-0.134-0.275-0.3-0.275h-0.627v-0.694h1.348c0.166,0,0.3-0.123,0.3-0.275s-0.134-0.275-0.3-0.275h-1.348v-0.695h0.627
		c0.166,0,0.3-0.123,0.3-0.275s-0.134-0.275-0.3-0.275h-0.627v-0.695h1.348c0.166,0,0.3-0.123,0.3-0.275
		c0-0.153-0.134-0.276-0.3-0.276h-1.348v-0.695h0.627c0.166,0,0.3-0.124,0.3-0.275s-0.134-0.275-0.3-0.275h-0.627v-0.694h1.348
		c0.166,0,0.3-0.123,0.3-0.276c0-0.152-0.134-0.275-0.3-0.275h-1.348V36.68l12.692,17.263L41.943,53.944L41.943,53.944z"/>
</g>
<g>
	<g>
		<rect x="66" y="34.516" fill="#909090" width="18" height="0.608"/>
	</g>
	<g>
		<polygon fill="#909090" points="78.791,39.866 74.999,36.075 71.208,39.866 70.678,39.336 74.999,35.014 79.321,39.336 		"/>
	</g>
	<g>
		<rect x="66" y="54.875" fill="#909090" width="18" height="0.608"/>
	</g>
	<g>
		<polygon fill="#909090" points="74.999,54.985 70.678,50.663 71.208,50.133 74.999,53.924 78.791,50.133 79.321,50.663 		"/>
	</g>
</g>
<g>
	<g>
		<rect x="114.972" y="34.477" fill="#909090" width="0.711" height="21.047"/>
	</g>
	<g>
		<polygon fill="#909090" points="110.047,50.053 109.427,49.433 113.86,45 109.427,40.568 110.047,39.948 115.1,45 		"/>
	</g>
	<g>
		<rect x="94.683" y="34.477" fill="#909090" width="0.711" height="21.047"/>
	</g>
	<g>
		<polygon fill="#909090" points="100.32,50.053 95.267,45 100.32,39.948 100.94,40.568 96.507,45 100.94,49.433 		"/>
	</g>
</g>
<g>
	<path fill="#909090" d="M138.414,34.328H126v23.25h18V39.98L138.414,34.328z M138.638,35.651l4.054,4.102h-4.054V35.651z
		 M126.766,56.802v-21.7h11.106v5.425h5.362v16.275C143.233,56.802,126.766,56.802,126.766,56.802z"/>
	<path fill="#909090" d="M129.829,40.915h3.447c0.212,0,0.383-0.173,0.383-0.387s-0.172-0.387-0.383-0.387h-3.447
		c-0.212,0-0.383,0.173-0.383,0.387C129.447,40.742,129.618,40.915,129.829,40.915z"/>
	<path fill="#909090" d="M135.574,44.015h2.68c0.212,0,0.383-0.173,0.383-0.387s-0.172-0.387-0.383-0.387h-2.68
		c-0.212,0-0.383,0.173-0.383,0.387C135.191,43.842,135.363,44.015,135.574,44.015z"/>
	<path fill="#909090" d="M133.388,43.357c-0.072,0.07-0.111,0.17-0.111,0.271s0.038,0.202,0.111,0.275
		c0.072,0.07,0.172,0.112,0.272,0.112s0.199-0.039,0.272-0.116c0.069-0.07,0.111-0.171,0.111-0.271c0-0.101-0.042-0.202-0.111-0.275
		C133.786,43.209,133.529,43.209,133.388,43.357z"/>
	<path fill="#909090" d="M140.17,44.015c0.1,0,0.199-0.043,0.272-0.112c0.069-0.073,0.111-0.174,0.111-0.275
		s-0.042-0.202-0.111-0.275c-0.146-0.143-0.399-0.143-0.543,0c-0.069,0.073-0.111,0.174-0.111,0.275s0.042,0.202,0.111,0.275
		C139.971,43.973,140.071,44.015,140.17,44.015z"/>
	<path fill="#909090" d="M134.425,46.34h-2.68c-0.212,0-0.383,0.173-0.383,0.387s0.172,0.387,0.383,0.387h2.68
		c0.212,0,0.383-0.173,0.383-0.387S134.637,46.34,134.425,46.34z"/>
	<path fill="#909090" d="M133.581,51.438c-0.531,0.125-1.134,0.808-1.507,0.042c-0.218-0.448-0.879-0.056-0.661,0.391
		c0.198,0.407,0.574,0.692,1.022,0.749c0.228,0.029,0.433-0.003,0.647-0.088c0.157-0.061,0.742-0.506,0.868-0.278
		c0.241,0.436,0.903,0.045,0.661-0.391C134.405,51.489,133.988,51.342,133.581,51.438z"/>
	<path fill="#909090" d="M141.413,47.701c-0.089-0.032-0.129-0.101-0.144-0.138c-0.015-0.038-0.035-0.115,0.006-0.201
		c0.186-0.396,0.108-0.852-0.198-1.163c-0.307-0.31-0.758-0.389-1.148-0.2c-0.087,0.041-0.163,0.021-0.2,0.006
		c-0.038-0.016-0.105-0.056-0.137-0.146c-0.145-0.414-0.519-0.68-0.953-0.68c-0.433,0-0.808,0.267-0.953,0.68
		c-0.032,0.09-0.099,0.13-0.137,0.146c-0.037,0.015-0.114,0.036-0.199-0.006c-0.391-0.187-0.841-0.11-1.149,0.2
		c-0.307,0.31-0.384,0.767-0.198,1.162c0.041,0.087,0.021,0.163,0.006,0.202c-0.015,0.039-0.055,0.106-0.144,0.138
		c-0.408,0.147-0.672,0.525-0.672,0.964s0.263,0.816,0.672,0.964c0.089,0.032,0.129,0.101,0.144,0.138
		c0.015,0.038,0.035,0.114-0.006,0.201c-0.186,0.396-0.108,0.852,0.198,1.163c0.148,0.15,0.33,0.244,0.523,0.283v4.774l1.915-1.937
		l1.915,1.937v-4.775c0.192-0.038,0.374-0.132,0.523-0.282c0.306-0.31,0.384-0.767,0.198-1.162c-0.04-0.088-0.021-0.164-0.006-0.202
		c0.015-0.039,0.055-0.106,0.144-0.138c0.409-0.147,0.672-0.525,0.672-0.964C142.085,48.226,141.821,47.848,141.413,47.701z
		 M138.638,53.155l-1.149,1.163v-3.007c0.003,0.001,0.007,0.001,0.01,0.002c0.019,0.004,0.038,0.009,0.05,0.014
		c0.019,0.008,0.045,0.022,0.071,0.045s0.051,0.056,0.066,0.101c0.145,0.413,0.519,0.68,0.953,0.68c0.433,0,0.808-0.267,0.953-0.68
		c0.016-0.045,0.04-0.078,0.066-0.101c0.026-0.023,0.052-0.037,0.071-0.045c0.012-0.005,0.031-0.01,0.049-0.014
		c0.003,0,0.006-0.001,0.01-0.002v3.006L138.638,53.155z M141.156,48.899c-0.269,0.097-0.486,0.305-0.595,0.572
		s-0.102,0.57,0.021,0.832c0.067,0.143-0.011,0.244-0.048,0.281c-0.031,0.031-0.108,0.087-0.215,0.066l-0.085-0.027
		c-0.035-0.016-0.072-0.024-0.108-0.036c-0.027-0.008-0.053-0.02-0.08-0.027c-0.038-0.009-0.076-0.011-0.114-0.015
		c-0.031-0.003-0.061-0.01-0.093-0.011c-0.037-0.001-0.074,0.006-0.11,0.009c-0.031,0.003-0.064,0.002-0.096,0.008
		c-0.068,0.013-0.134,0.032-0.199,0.06h-0.001l0,0c-0.017,0.007-0.031,0.019-0.048,0.026c-0.048,0.023-0.095,0.047-0.138,0.076
		c-0.052,0.036-0.099,0.079-0.143,0.124c-0.005,0.005-0.011,0.009-0.016,0.014c-0.097,0.103-0.172,0.226-0.22,0.362
		c-0.052,0.148-0.178,0.164-0.23,0.164s-0.179-0.016-0.231-0.165c-0.048-0.136-0.123-0.259-0.22-0.362
		c-0.004-0.004-0.009-0.007-0.013-0.011c-0.045-0.047-0.093-0.089-0.147-0.126c-0.041-0.029-0.088-0.051-0.134-0.073
		c-0.018-0.009-0.034-0.022-0.053-0.029l0,0V50.61c-0.008-0.003-0.017-0.004-0.025-0.007c-0.056-0.022-0.113-0.04-0.171-0.052
		c-0.047-0.009-0.093-0.011-0.14-0.014c-0.017-0.001-0.035-0.005-0.052-0.005c-0.001,0-0.002,0-0.003,0
		c-0.143,0-0.283,0.028-0.401,0.086l-0.087,0.027c-0.109,0.026-0.19-0.032-0.221-0.064c-0.037-0.037-0.115-0.138-0.048-0.282
		c0.122-0.261,0.13-0.564,0.021-0.831c-0.109-0.267-0.326-0.476-0.595-0.572c-0.147-0.052-0.163-0.18-0.163-0.233
		s0.015-0.181,0.163-0.234c0.269-0.097,0.486-0.305,0.595-0.572c0.109-0.267,0.102-0.57-0.021-0.832
		c-0.067-0.143,0.011-0.244,0.048-0.281c0.037-0.038,0.137-0.116,0.279-0.049c0.258,0.124,0.557,0.132,0.821,0.021
		c0.263-0.11,0.47-0.33,0.565-0.602c0.052-0.147,0.178-0.163,0.23-0.163s0.179,0.016,0.231,0.164
		c0.096,0.272,0.301,0.492,0.565,0.602c0.263,0.112,0.564,0.103,0.822-0.021c0.14-0.068,0.242,0.011,0.278,0.049
		c0.037,0.037,0.115,0.138,0.048,0.282c-0.122,0.262-0.13,0.564-0.021,0.831c0.109,0.267,0.326,0.476,0.595,0.572
		c0.147,0.052,0.162,0.18,0.162,0.233C141.319,48.718,141.303,48.846,141.156,48.899z"/>
</g>
<g>
	<path fill="#909090" d="M161.714,41.818h2.389c0.177,0,0.32-0.145,0.32-0.323v-2.41c0-0.179-0.143-0.323-0.32-0.323h-2.389
		c-0.177,0-0.32,0.144-0.32,0.323v2.409C161.394,41.674,161.537,41.818,161.714,41.818z M162.034,39.409h1.75v1.764h-1.75V39.409z"
		/>
	<path fill="#909090" d="M165.896,41.818h2.389c0.177,0,0.32-0.145,0.32-0.323v-2.41c0-0.179-0.143-0.323-0.32-0.323h-2.389
		c-0.177,0-0.32,0.144-0.32,0.323v2.409C165.576,41.674,165.719,41.818,165.896,41.818z M166.216,39.409h1.75v1.764h-1.75V39.409z"
		/>
	<path fill="#909090" d="M164.104,46.12c0.177,0,0.32-0.145,0.32-0.323v-2.409c0-0.179-0.143-0.323-0.32-0.323h-2.389
		c-0.177,0-0.32,0.144-0.32,0.323v2.409c0,0.179,0.143,0.323,0.32,0.323H164.104z M162.034,43.711h1.75v1.764h-1.75V43.711z"/>
	<path fill="#909090" d="M165.896,46.12h2.389c0.177,0,0.32-0.145,0.32-0.323v-2.409c0-0.179-0.143-0.323-0.32-0.323h-2.389
		c-0.177,0-0.32,0.144-0.32,0.323v2.409C165.576,45.976,165.719,46.12,165.896,46.12z M166.216,43.711h1.75v1.764h-1.75V43.711z"/>
	<path fill="#909090" d="M173.68,40.312h-3.495v-3.437c0-0.179-0.143-0.323-0.32-0.323h-9.729c-0.177,0-0.32,0.144-0.32,0.323v3.437
		h-3.495c-0.177,0-0.32,0.145-0.32,0.322v2.239v2.409v1.893v2.409v3.896c0,0.179,0.143,0.323,0.32,0.323h3.815h9.729h3.815
		c0.177,0,0.32-0.144,0.32-0.323v-3.896v-2.409v-1.893v-2.409v-2.239C174,40.457,173.857,40.312,173.68,40.312z M156.64,43.196h1.75
		v1.764h-1.75V43.196z M156.64,47.498h1.75v1.764h-1.75V47.498z M159.815,53.158h-3.176v-3.25h2.07c0.177,0,0.32-0.145,0.32-0.323
		v-2.409c0-0.179-0.143-0.323-0.32-0.323h-2.07v-1.247h2.07c0.177,0,0.32-0.145,0.32-0.323v-2.409c0-0.179-0.143-0.323-0.32-0.323
		h-2.07v-1.595h3.176V53.158z M166.336,53.158h-2.672v-4.692h2.672V53.158z M169.544,40.635v12.523h-2.569v-5.015
		c0-0.178-0.143-0.322-0.32-0.322h-3.311c-0.177,0-0.32,0.145-0.32,0.322v5.015h-2.569V40.635v-3.437h9.089L169.544,40.635
		L169.544,40.635z M173.36,49.262h-1.75v-1.764h1.75V49.262z M173.36,44.96h-1.75v-1.764h1.75V44.96z M173.36,42.551h-2.07
		c-0.177,0-0.32,0.145-0.32,0.323v2.409c0,0.179,0.143,0.323,0.32,0.323h2.07v1.247h-2.07c-0.177,0-0.32,0.145-0.32,0.323v2.409
		c0,0.179,0.143,0.323,0.32,0.323h2.07v3.25h-3.176V40.957h3.176V42.551z"/>
</g>
<g>
	<g>
		<path fill="#909090" d="M200.489,52.098l-0.428-0.29c2.263-3.335-0.206-5.789-2.191-7.761c-1.016-1.009-1.818-1.806-1.818-2.572
			c0-2.114,2.437-3.055,4.587-3.884l0.275-0.106l0.187,0.482l-0.276,0.107c-1.995,0.77-4.256,1.642-4.256,3.402
			c0,0.551,0.809,1.354,1.665,2.205C200.243,45.676,202.994,48.408,200.489,52.098z"/>
	</g>
	<g>
		<path fill="#909090" d="M184.694,52.19l-0.205-0.475c7.774-3.357,7.248-5.098,6.519-7.506c-0.241-0.796-0.514-1.699-0.514-2.734
			c0-4.409,8.049-5.635,8.962-5.635v0.517c-0.822,0-8.445,1.182-8.445,5.118c0,0.958,0.25,1.785,0.491,2.584
			C192.364,46.906,192.495,48.822,184.694,52.19z"/>
	</g>
	<g>
		<g>
			<g>
				<path fill="#909090" d="M196.783,38.162l-0.096-0.331c0.245-0.071,0.475-0.131,0.679-0.185l0.321-0.086l0.092,0.333
					l-0.325,0.087C197.253,38.032,197.026,38.092,196.783,38.162z"/>
			</g>
			<g>
				<path fill="#909090" d="M195.977,48.887l-0.345-0.013c0.002-0.058,0.003-0.116,0.003-0.174c0-0.609-0.116-1.249-0.355-1.956
					l0.327-0.11c0.251,0.743,0.374,1.419,0.374,2.066C195.98,48.763,195.979,48.825,195.977,48.887z M194.401,44.716
					c-0.117-0.238-0.239-0.481-0.364-0.729c-0.205-0.407-0.417-0.83-0.63-1.274l0.31-0.149c0.212,0.442,0.424,0.863,0.628,1.268
					c0.125,0.249,0.248,0.493,0.365,0.732L194.401,44.716z M193.406,40.523l-0.332-0.094c0.192-0.684,0.699-1.272,1.505-1.749
					l0.175,0.297C194.027,39.407,193.573,39.927,193.406,40.523z"/>
			</g>
			<g>
				<path fill="#909090" d="M194.906,52.045l-0.293-0.182c0.189-0.303,0.352-0.602,0.486-0.89l0.312,0.145
					C195.272,51.418,195.102,51.73,194.906,52.045z"/>
			</g>
		</g>
	</g>
</g>
<g>
	<g>
		<polygon fill="#43B2BE" points="345,20.25 337.5,12.75 338.665,11.585 345,17.919 351.335,11.585 352.5,12.75 		"/>
	</g>
</g>
<g>
	<g>
		<polygon fill="#17A1D6" points="435,18.466 429,12.466 429.932,11.534 435,16.601 440.068,11.534 441,12.466 		"/>
	</g>
</g>
<path fill="#333333" d="M365.206,13.453c-0.139-0.131-0.206-0.296-0.206-0.479c0-0.18,0.07-0.348,0.206-0.479
	c0.276-0.263,0.724-0.263,1,0L375,20.912l8.794-8.418c0.276-0.263,0.724-0.263,1,0c0.276,0.265,0.276,0.693,0,0.958L375.5,22.35
	c-0.276,0.265-0.724,0.265-1,0L365.206,13.453z"/>
<path fill="#333333" d="M414.794,21.392c0.139,0.131,0.206,0.296,0.206,0.479c0,0.18-0.07,0.348-0.206,0.479
	c-0.276,0.263-0.724,0.263-1,0L405,13.934l-8.794,8.418c-0.276,0.263-0.724,0.263-1,0c-0.276-0.265-0.276-0.693,0-0.958l9.294-8.898
	c0.276-0.265,0.724-0.265,1,0L414.794,21.392z"/>
<g>
	<path fill="#3A4959" d="M282.701,40.256h-12.136c-0.54-1.876-1.601-3.587-3.086-4.912c-2.25-2.01-5.158-2.933-8.187-2.599
		c-4.858,0.535-8.742,4.447-9.237,9.3c-0.271,2.649,0.456,5.268,2.045,7.374c1.523,2.019,3.708,3.414,6.167,3.943l2.587,2.581
		c0.217,0.217,0.506,0.331,0.8,0.331c0.146,0,0.293-0.028,0.434-0.087c0.425-0.176,0.699-0.585,0.699-1.044v-1.806
		c0.425-0.095,0.84-0.215,1.243-0.358v0.071c0,1.266,1.033,2.296,2.301,2.296h3.865l2.059,2.054
		c0.184,0.184,0.428,0.281,0.678,0.281c0.123,0,0.249-0.024,0.368-0.074c0.36-0.148,0.592-0.496,0.592-0.885v-1.377h8.805
		c1.269,0,2.301-1.03,2.301-2.296V42.552C285.002,41.286,283.97,40.256,282.701,40.256z M262.144,52.348
		c-0.261,0.046-0.452,0.273-0.452,0.539v2.255c0,0.013,0,0.024-0.023,0.033c-0.023,0.009-0.031,0.001-0.04-0.008l-2.702-2.696
		c-0.077-0.076-0.174-0.128-0.281-0.15c-2.262-0.449-4.275-1.714-5.669-3.562c-1.422-1.886-2.072-4.232-1.83-6.606
		c0.214-2.092,1.163-4.083,2.674-5.604c1.512-1.523,3.498-2.488,5.592-2.719c0.364-0.04,0.726-0.059,1.086-0.059
		c2.317,0,4.504,0.828,6.249,2.387c1.988,1.775,3.128,4.32,3.128,6.98C269.876,47.678,266.624,51.552,262.144,52.348z
		 M283.907,53.047c0,0.663-0.541,1.202-1.206,1.202h-9.353c-0.303,0-0.548,0.244-0.548,0.547v1.596l-1.987-1.982
		c-0.103-0.102-0.242-0.16-0.387-0.16h-4.092c-0.665,0-1.206-0.54-1.206-1.203v-0.533c3.508-1.72,5.846-5.309,5.846-9.377
		c0-0.604-0.053-1.201-0.155-1.789h11.884c0.665,0,1.206,0.54,1.206,1.203v10.495L283.907,53.047L283.907,53.047z"/>
	<path fill="#3A4959" d="M280.75,44.497c-0.214-0.214-0.561-0.214-0.775,0l-5.458,5.445l-2.534-2.528
		c-0.214-0.214-0.561-0.214-0.775,0s-0.214,0.559,0,0.773l2.922,2.914c0.107,0.107,0.247,0.16,0.388,0.16
		c0.14,0,0.28-0.053,0.387-0.16l5.846-5.831C280.964,45.058,280.964,44.711,280.75,44.497z"/>
	<path fill="#3A4959" d="M260.487,47.254C260.486,47.254,260.486,47.254,260.487,47.254c-0.304,0-0.549,0.244-0.549,0.547l0,0l0,0
		c0,0.303,0.246,0.547,0.548,0.547c0,0,0,0,0.001,0c0.303,0,0.548-0.244,0.548-0.547l0,0l0,0
		C261.036,47.5,260.79,47.254,260.487,47.254z"/>
	<path fill="#3A4959" d="M262.928,38.953c-0.663-0.662-1.531-1.027-2.441-1.027c-1.914,0-3.47,1.554-3.47,3.462
		c0,0.303,0.246,0.547,0.548,0.547s0.548-0.244,0.548-0.547c0-1.307,1.066-2.369,2.375-2.369c0.618,0,1.209,0.25,1.666,0.706
		s0.709,1.047,0.709,1.663c0,1.038-0.695,1.971-1.691,2.269c-0.737,0.221-1.231,0.878-1.231,1.638v0.174
		c0,0.303,0.246,0.547,0.548,0.547s0.548-0.244,0.548-0.547v-0.173c0-0.273,0.18-0.51,0.45-0.591
		c1.456-0.436,2.472-1.799,2.472-3.317C263.958,40.48,263.592,39.615,262.928,38.953z"/>
</g>
<g>
	<path fill="#3A4959" d="M324.229,43.157l-6.894-0.932V37.75c1.066-0.595,1.777-1.774,1.718-3.112
		c-0.077-1.725-1.448-3.126-3.138-3.207c-1.891-0.09-3.457,1.454-3.457,3.363c0,1.274,0.697,2.385,1.721,2.956v4.048l-6.261-0.846
		c-0.486-0.066-0.934,0.285-0.998,0.78l-1.914,14.746c-0.031,0.24,0.031,0.479,0.175,0.671c0.145,0.192,0.353,0.316,0.589,0.347
		l10.41,1.407c0.036,0.005,0.072,0.008,0.109,0.008c0.041,0.013,0.085,0.02,0.128,0.02c0.087,0,0.173-0.027,0.249-0.082l0.147-0.107
		l0,0l3.167-2.304l3.624-2.636c0.126-0.091,0.188-0.239,0.179-0.386c0.01-0.038,0.018-0.077,0.024-0.116l0.56-4.312
		c0.034-0.263-0.167-0.497-0.426-0.497c-0.216,0-0.398,0.163-0.427,0.382l-0.54,4.155l-5.376-0.726
		c-0.486-0.066-0.933,0.285-0.998,0.78l-0.637,4.906l-10.082-1.363c-0.003,0-0.011-0.002-0.019-0.011
		c-0.007-0.01-0.006-0.018-0.006-0.021l1.914-14.746c0.002-0.016,0.016-0.027,0.031-0.025l6.374,0.862v0.273
		c0,0.888,0.69,1.636,1.561,1.645c0.839,0.009,1.53-0.653,1.59-1.492l6.786,0.918c0.003,0,0.011,0.002,0.018,0.01
		c0.008,0.01,0.006,0.018,0.006,0.021l-0.314,2.417c-0.034,0.263,0.167,0.497,0.426,0.497c0.216,0,0.398-0.163,0.427-0.382
		l0.314-2.417C325.058,43.68,324.715,43.223,324.229,43.157z M317.456,53.198c0-0.003,0.002-0.011,0.01-0.019
		c0.01-0.008,0.018-0.006,0.021-0.006l4.639,0.627l-5.244,3.814L317.456,53.198z M316.475,42.992c0,0.404-0.322,0.732-0.717,0.732
		c-0.395,0-0.717-0.328-0.717-0.732v-0.678c0-0.003,0-0.007,0-0.01V38.08c0.231,0.052,0.471,0.081,0.717,0.081
		c0.247,0,0.486-0.029,0.717-0.081V42.992z M315.757,37.283c-1.344,0-2.438-1.117-2.438-2.489s1.094-2.489,2.438-2.489
		s2.439,1.117,2.439,2.489C318.196,36.166,317.102,37.283,315.757,37.283z"/>
	<path fill="#3A4959" d="M320.174,46.743l-9.101-1.23c-0.235-0.032-0.452,0.137-0.483,0.378c-0.031,0.241,0.134,0.461,0.37,0.493
		l9.101,1.23c0.019,0.003,0.038,0.004,0.057,0.004c0.212,0,0.397-0.161,0.426-0.382C320.576,46.996,320.411,46.776,320.174,46.743z"
		/>
	<path fill="#3A4959" d="M319.797,49.646l-9.101-1.23c-0.236-0.032-0.452,0.137-0.483,0.378c-0.031,0.24,0.134,0.461,0.37,0.493
		l9.101,1.23c0.019,0.003,0.038,0.004,0.057,0.004c0.212,0,0.397-0.161,0.427-0.382C320.199,49.898,320.034,49.677,319.797,49.646z"
		/>
</g>
<path fill="#3A4959" d="M355.006,50.573l-3.821-1.935c-0.36-0.183-0.585-0.549-0.585-0.958v-1.37
	c0.092-0.113,0.188-0.243,0.288-0.385c0.495-0.709,0.893-1.498,1.182-2.35c0.564-0.262,0.931-0.827,0.931-1.466v-1.622
	c0-0.39-0.144-0.768-0.4-1.064v-2.155c0.022-0.223,0.111-1.55-0.837-2.644c-0.822-0.949-2.155-1.431-3.964-1.431
	s-3.142,0.482-3.964,1.431c-0.574,0.663-0.767,1.411-0.825,1.947c-0.686-0.359-1.493-0.541-2.411-0.541
	c-4.156,0-4.397,3.588-4.4,3.646v1.856c-0.259,0.286-0.4,0.616-0.4,0.944v1.4c0,0.437,0.193,0.845,0.525,1.12
	c0.33,1.26,1.142,2.212,1.458,2.547v1.112c0,0.319-0.171,0.611-0.469,0.776l-2.662,1.691c-1.019,0.563-1.653,1.644-1.653,2.82v1.539
	h5.6h0.8H357v-1.638C357.001,52.449,356.236,51.196,355.006,50.573z M338.6,53.763v0.907h-4.8v-0.729
	c0-0.879,0.473-1.688,1.257-2.121l2.661-1.691c0.533-0.295,0.864-0.86,0.864-1.475v-1.455l-0.127-0.121
	c-0.01-0.009-1.073-1.027-1.387-2.413l-0.036-0.16l-0.137-0.089c-0.184-0.121-0.294-0.323-0.294-0.541v-1.4
	c0-0.146,0.098-0.32,0.268-0.476L337,41.88V39.7c0.007-0.116,0.216-2.86,3.601-2.86c0.957,0,1.763,0.224,2.4,0.666v1.917
	c-0.256,0.296-0.4,0.674-0.4,1.064v1.621c0,0.123,0.014,0.244,0.04,0.362c0.011,0.047,0.033,0.09,0.047,0.135
	c0.022,0.068,0.039,0.138,0.07,0.202c0,0.001,0.001,0.001,0.001,0.002c0.103,0.214,0.252,0.405,0.44,0.558
	c0.002,0.008,0.004,0.015,0.007,0.022c0.024,0.093,0.049,0.185,0.076,0.275l0.033,0.105c0.005,0.019,0.012,0.038,0.018,0.057
	c0.014,0.044,0.027,0.087,0.042,0.13c0.024,0.071,0.049,0.144,0.078,0.224c0.013,0.033,0.026,0.063,0.039,0.096
	c0.033,0.085,0.066,0.166,0.1,0.248c0.009,0.02,0.015,0.04,0.024,0.059l0.022,0.051c0.01,0.023,0.021,0.045,0.032,0.068
	c0.039,0.087,0.078,0.171,0.117,0.252c0.006,0.013,0.012,0.027,0.019,0.04c0.025,0.051,0.051,0.099,0.075,0.147
	c0.043,0.083,0.086,0.162,0.128,0.238c0.021,0.037,0.041,0.074,0.062,0.109c0.057,0.099,0.112,0.191,0.165,0.276
	c0.012,0.018,0.023,0.037,0.034,0.055c0.097,0.152,0.181,0.275,0.25,0.371c0.018,0.026,0.034,0.047,0.05,0.069
	c0.009,0.012,0.021,0.029,0.028,0.039v1.341c0,0.393-0.211,0.752-0.551,0.94l-1.059,0.585l-0.184-0.017l-0.075,0.16l-2.25,1.244
	C339.321,51.195,338.6,52.425,338.6,53.763z M356.2,54.67h-16.8v-0.907c0-1.041,0.561-2,1.463-2.498l3.568-1.971
	c0.597-0.33,0.968-0.963,0.968-1.652v-1.628l0,0l-0.078-0.094l-0.015-0.018c-0.001-0.002-0.026-0.032-0.066-0.085
	c-0.003-0.003-0.005-0.006-0.008-0.009c-0.021-0.028-0.046-0.062-0.075-0.102c0-0.001-0.001-0.001-0.001-0.002
	c-0.059-0.084-0.135-0.193-0.218-0.324c-0.002-0.003-0.003-0.006-0.005-0.009c-0.039-0.062-0.081-0.129-0.123-0.201
	c-0.003-0.005-0.006-0.01-0.009-0.016c-0.091-0.153-0.186-0.327-0.282-0.519v-0.001c-0.051-0.104-0.102-0.212-0.151-0.325l0,0
	c-0.007-0.015-0.014-0.031-0.021-0.047l0,0c-0.022-0.051-0.044-0.104-0.066-0.159c-0.008-0.02-0.016-0.04-0.024-0.061
	c-0.021-0.053-0.042-0.106-0.064-0.168c-0.041-0.111-0.079-0.225-0.116-0.344l-0.022-0.072c-0.003-0.008-0.005-0.016-0.008-0.025
	c-0.038-0.128-0.074-0.259-0.104-0.393l-0.036-0.16l-0.136-0.089c-0.232-0.152-0.37-0.405-0.37-0.68v-1.623
	c0-0.227,0.095-0.439,0.268-0.597l0.132-0.12v-2.524v-0.144l-0.011-0.009c-0.014-0.292,0.003-1.189,0.65-1.935
	c0.663-0.766,1.794-1.155,3.362-1.155c1.562,0,2.691,0.385,3.355,1.146c0.779,0.891,0.65,2.033,0.649,2.043l-0.003,2.577
	l0.132,0.121c0.173,0.159,0.268,0.37,0.268,0.597v1.621c0,0.354-0.229,0.663-0.569,0.77l-0.199,0.062l-0.064,0.201
	c-0.267,0.843-0.649,1.622-1.133,2.315c-0.119,0.171-0.234,0.321-0.335,0.437l-0.099,0.115v1.671c0,0.717,0.393,1.362,1.026,1.683
	l3.821,1.935c0.957,0.485,1.552,1.46,1.552,2.545v0.828C356.202,54.67,356.2,54.67,356.2,54.67z"/>
<g>
	<path fill="#7F7F7F" d="M6,70h18v1.505H6V70z"/>
	<path fill="#7F7F7F" d="M6,75.631h18v1.505H6V75.631z"/>
	<path fill="#7F7F7F" d="M6,81.352h18v1.505H6V81.352z"/>
</g>
<g>
	<path fill="#787878" d="M132.085,85.077l-12.081,23.754l-11.978-23.754H132.085z"/>
	<path fill="#787878" d="M109.144,82.549L120,71.693l10.856,10.856H109.144z"/>
	<path fill="#787878" d="M123.051,71.17h14.689l-4.146,10.543L123.051,71.17z"/>
	<path fill="#787878" d="M106.565,81.552l-3.461-10.384h13.843L106.565,81.552z"/>
	<path fill="#787878" d="M105.195,85.077l10.517,20.857L93.197,85.077H105.195z"/>
	<path fill="#787878" d="M134.921,85.077h11.881l-22.465,20.807L134.921,85.077z"/>
	<path fill="#787878" d="M135.984,82.549l3.961-10.072l7.554,10.072H135.984z"/>
	<path fill="#787878" d="M100.622,71.72l3.611,10.829H92.5L100.622,71.72z"/>
</g>
<g>
	<path fill="#787878" d="M177.17,104.099c-1.944,1.806-4.63,2.211-7.014,1.056c-0.861-0.417-1.589-0.994-2.159-1.684l-3.245,7.223
		c-0.148,0.329,0.018,0.576,0.095,0.668c0.078,0.091,0.295,0.293,0.641,0.196l2.363-0.662c0.27-0.076,0.542-0.111,0.81-0.111
		c1.132,0,2.198,0.645,2.71,1.714l1.068,2.222c0.156,0.324,0.448,0.357,0.569,0.354c0.119-0.001,0.412-0.04,0.561-0.369l5.162-11.49
		C178.164,103.379,177.627,103.673,177.17,104.099z"/>
	<path fill="#787878" d="M195.246,110.694l-3.245-7.223c-0.569,0.691-1.296,1.267-2.159,1.684c-2.384,1.155-5.071,0.75-7.014-1.056
		c-0.457-0.425-0.994-0.72-1.561-0.884l5.162,11.49c0.147,0.329,0.441,0.368,0.561,0.369c0.121,0.002,0.415-0.03,0.569-0.354
		l1.068-2.222c0.513-1.069,1.579-1.714,2.711-1.714c0.269,0,0.54,0.037,0.81,0.111l2.363,0.662c0.346,0.097,0.564-0.105,0.641-0.196
		C195.23,111.27,195.394,111.023,195.246,110.694z"/>
	<path fill="#787878" d="M197.796,85.278c-2.696-1.857-3.532-5.544-1.903-8.394c0.979-1.713,0.469-3.407-0.333-4.42
		s-2.33-1.889-4.208-1.311c-3.123,0.963-6.511-0.679-7.71-3.736c-0.721-1.838-2.354-2.493-3.642-2.493
		c-1.287,0-2.921,0.655-3.642,2.493c-1.2,3.058-4.586,4.698-7.71,3.736c-1.878-0.578-3.405,0.298-4.207,1.311
		s-1.312,2.706-0.333,4.419c1.628,2.85,0.791,6.537-1.903,8.395c-1.62,1.117-1.891,2.864-1.605,4.127s1.284,2.719,3.225,3.018
		c3.23,0.497,5.572,3.454,5.335,6.731c-0.143,1.971,1.046,3.274,2.205,3.836c1.16,0.563,2.913,0.685,4.356-0.656
		c1.199-1.116,2.739-1.673,4.278-1.673c1.54,0,3.079,0.557,4.278,1.673c1.442,1.342,3.196,1.218,4.356,0.656
		c1.16-0.562,2.349-1.866,2.205-3.836c-0.237-3.278,2.106-6.235,5.335-6.731c1.941-0.299,2.939-1.754,3.225-3.018
		C199.687,88.142,199.416,86.394,197.796,85.278z M180,97.828c-7.064,0-12.813-5.784-12.813-12.892
		c0-7.109,5.747-12.892,12.813-12.892c7.064,0,12.813,5.783,12.813,12.892C192.812,92.044,187.064,97.828,180,97.828z"/>
	<path fill="#787878" d="M180,74.448c-5.747,0-10.423,4.705-10.423,10.488S174.253,95.423,180,95.423
		c5.747,0,10.423-4.705,10.423-10.488S185.747,74.448,180,74.448z M185.341,83.919l-6.487,4.768
		c-0.206,0.152-0.452,0.232-0.704,0.232c-0.065,0-0.13-0.006-0.195-0.016c-0.316-0.052-0.598-0.231-0.782-0.495l-1.94-2.781
		c-0.379-0.543-0.249-1.293,0.291-1.674c0.54-0.381,1.285-0.251,1.664,0.293l1.241,1.779l5.504-4.045
		c0.533-0.391,1.281-0.274,1.669,0.262C185.991,82.776,185.874,83.528,185.341,83.919z"/>
</g>
<path fill="#787878" d="M252.589,76.706c-1.354-0.743-2.864,0.69-3.749,1.539c-2.031,2.016-3.749,4.35-5.676,6.472
	c-2.135,2.334-4.114,4.668-6.301,6.95c-1.25,1.273-2.604,2.652-3.437,4.244c-1.875-1.857-3.489-3.873-5.572-5.517
	c-1.51-1.167-4.009-2.016-3.957,0.796c0.104,3.66,3.281,7.586,5.624,10.079c0.989,1.061,2.291,2.175,3.801,2.228
	c1.822,0.106,3.697-2.122,4.791-3.342c1.927-2.122,3.489-4.509,5.259-6.684c2.291-2.865,4.634-5.676,6.873-8.594
	C251.652,83.072,256.078,78.616,252.589,76.706z M226.189,90.977c-0.052,0-0.104,0-0.208,0.053
	c-0.208-0.053-0.365-0.106-0.573-0.212l0,0C225.564,90.712,225.824,90.765,226.189,90.977z"/>
<path fill="#93C206" d="M385.621,38.546l-1.843-1.832c-0.253-0.251-0.56-0.377-0.921-0.377s-0.669,0.125-0.921,0.377l-8.888,8.848
	l-3.983-3.973c-0.253-0.252-0.56-0.377-0.921-0.377s-0.668,0.125-0.921,0.377l-1.843,1.831c-0.253,0.252-0.379,0.557-0.379,0.916
	s0.126,0.664,0.379,0.916l4.904,4.876l1.843,1.831c0.253,0.251,0.56,0.377,0.921,0.377s0.668-0.126,0.921-0.377l1.843-1.831
	l9.809-9.752C385.874,40.125,386,39.82,386,39.46C386,39.103,385.874,38.797,385.621,38.546z"/>
<path fill="#D60808" d="M410.456,36.434c-0.128-0.129-0.338-0.129-0.466,0l-4.757,4.757c-0.128,0.128-0.338,0.128-0.466,0
	l-4.757-4.757c-0.128-0.129-0.338-0.129-0.466,0l-2.448,2.448c-0.128,0.128-0.128,0.338,0,0.466l4.757,4.757
	c0.128,0.128,0.128,0.338,0,0.466l-4.757,4.757c-0.128,0.128-0.128,0.338,0,0.466l2.448,2.448c0.128,0.128,0.338,0.128,0.466,0
	l4.757-4.757c0.128-0.129,0.338-0.129,0.466,0l4.757,4.757c0.128,0.128,0.338,0.128,0.466,0l2.448-2.448
	c0.128-0.128,0.128-0.338,0-0.467l-4.757-4.756c-0.128-0.128-0.128-0.338,0-0.466l4.757-4.757c0.128-0.128,0.128-0.338,0-0.466
	L410.456,36.434z"/>
<path fill="#8E8E8E" d="M436.606,44.791l7.277-7.295c0.157-0.157,0.157-0.412,0-0.569l-1.038-1.041
	c-0.075-0.075-0.177-0.118-0.284-0.118c-0.106,0-0.209,0.042-0.284,0.118L435,43.181l-7.277-7.295c-0.151-0.151-0.418-0.151-0.568,0
	l-1.038,1.041c-0.157,0.157-0.157,0.412,0,0.569l7.276,7.295l-7.276,7.295c-0.157,0.157-0.157,0.412,0,0.569l1.038,1.041
	c0.075,0.075,0.177,0.118,0.284,0.118c0.106,0,0.209-0.043,0.284-0.118L435,46.401l7.276,7.295c0.075,0.075,0.178,0.118,0.284,0.118
	c0.107,0,0.209-0.043,0.284-0.118l1.038-1.041c0.157-0.157,0.157-0.412,0-0.569L436.606,44.791z"/>
<g>
	<path fill="#808080" d="M475.15,26.223h-1.422c0.015-0.115,0.022-0.232,0.022-0.35c0-0.988-0.569-1.829-1.4-2.218V11.873
		c0-0.21-0.14-0.35-0.35-0.35h-5.25v-5.25c0-0.21-0.14-0.35-0.35-0.35h-9.45c-0.21,0-0.35,0.14-0.35,0.35v19.95h-1.75
		c-0.21,0-0.35,0.14-0.35,0.35c0,0.21,0.14,0.35,0.35,0.35h2.1H458h8.4h6.895h1.855c0.21,0,0.35-0.14,0.35-0.35
		C475.5,26.363,475.36,26.223,475.15,26.223z M471.65,23.448c-0.114-0.016-0.231-0.025-0.35-0.025c-0.264,0-0.523,0.045-0.768,0.129
		c-0.061-0.081-0.159-0.129-0.282-0.129c-0.21,0-0.35,0.14-0.35,0.35v0.107c-0.133,0.096-0.256,0.205-0.368,0.326
		c-0.018,0.019-0.035,0.038-0.052,0.057c-0.29-0.363-0.664-0.625-1.086-0.752c-0.061-0.056-0.144-0.087-0.244-0.087
		c-0.039,0-0.075,0.005-0.109,0.014c-0.079-0.009-0.159-0.014-0.241-0.014c-0.219,0-0.466,0.028-0.666,0.11
		c-0.025,0.009-0.049,0.017-0.074,0.026c-0.242-0.197-0.525-0.338-0.823-0.416c-0.003-0.001-0.006-0.002-0.009-0.003
		c-0.026-0.007-0.052-0.013-0.078-0.019c-0.021-0.005-0.043-0.009-0.064-0.013c-0.009-0.002-0.019-0.004-0.028-0.005
		c-0.022-0.004-0.045-0.008-0.068-0.011c-0.01-0.002-0.02-0.003-0.03-0.004c-0.021-0.003-0.042-0.005-0.063-0.007
		c-0.016-0.001-0.031-0.003-0.046-0.004c-0.017-0.001-0.033-0.003-0.05-0.003c-0.033-0.002-0.067-0.003-0.1-0.003
		c-0.026,0-0.051,0.001-0.077,0.001c-0.017,0.001-0.033,0.002-0.05,0.003c-0.007,0-0.013,0.001-0.02,0.001
		c-0.319,0.021-0.632,0.111-0.903,0.27V12.223h1.75h5.25v11.225H471.65z M457.3,6.623h8.75v4.9h-1.75c-0.21,0-0.35,0.14-0.35,0.35
		v10.885c-0.179-0.179-0.385-0.33-0.61-0.449c-0.02-0.01-0.04-0.021-0.06-0.031c-0.008-0.004-0.016-0.008-0.024-0.012
		c-0.25-0.121-0.522-0.201-0.806-0.23c-0.004-0.001-0.008-0.001-0.012-0.001c-0.033-0.003-0.066-0.006-0.099-0.008
		c-0.009-0.001-0.018-0.001-0.027-0.002c-0.037-0.002-0.075-0.003-0.113-0.003c-0.521,0-1.004,0.171-1.4,0.459v-0.109
		c0-0.21-0.14-0.35-0.35-0.35s-0.35,0.14-0.35,0.35v0.7c0,0.053,0.009,0.101,0.025,0.143c-0.172,0.283-0.29,0.603-0.34,0.942
		c-0.403,0.046-0.771,0.191-1.085,0.408v-0.093c0-0.21-0.14-0.35-0.35-0.35s-0.35,0.14-0.35,0.35v0.7
		c0,0.041,0.006,0.079,0.016,0.114c-0.174,0.281-0.292,0.598-0.34,0.936H457.3V6.623L457.3,6.623z M459.941,24.83
		c0.007-0.001,0.014-0.001,0.021-0.002c0.018-0.002,0.037-0.003,0.056-0.004c0.027-0.001,0.055-0.002,0.083-0.002
		c0.21,0,0.35-0.14,0.35-0.35c0-0.98,0.77-1.75,1.75-1.75c0.875,0,1.61,0.63,1.715,1.505c0.024,0.095,0.08,0.173,0.157,0.224
		c0.005,0.004,0.01,0.007,0.015,0.01c0.006,0.003,0.011,0.007,0.017,0.01c0.013,0.007,0.026,0.014,0.04,0.019
		c0.001,0,0.001,0.001,0.002,0.001c0.016,0.007,0.033,0.012,0.05,0.016l0,0c0.021,0.007,0.044,0.01,0.069,0.009
		c0.115,0.002,0.222-0.061,0.281-0.149l0,0l0,0l0.035-0.035c0.28-0.35,0.665-0.56,1.12-0.56c0.236,0,0.473,0.066,0.685,0.19
		c-0.418,0.393-0.654,0.904-0.682,1.452c-0.002,0.036-0.003,0.072-0.003,0.108c0,0.243,0.04,0.477,0.121,0.7h-7.436
		C458.549,25.47,459.173,24.9,459.941,24.83z M466.647,26.223c-0.134-0.226-0.212-0.493-0.212-0.735
		c0-0.387,0.153-0.736,0.415-0.991c0.05-0.047,0.104-0.089,0.16-0.128c0.055,0.001,0.11-0.011,0.16-0.036
		c0.77-0.42,1.68-0.035,1.96,0.735c0.035,0.105,0.14,0.21,0.315,0.21c0.033,0,0.07-0.011,0.107-0.029
		c0.088-0.014,0.157-0.079,0.208-0.18c0.135-0.288,0.346-0.518,0.601-0.68c0.055-0.015,0.102-0.042,0.14-0.079
		c0.241-0.121,0.513-0.186,0.799-0.186c0.98,0,1.75,0.77,1.75,1.75c0,0.105,0,0.245-0.035,0.35L466.647,26.223L466.647,26.223z"/>
	<path fill="#808080" d="M466.05,15.023c-0.21,0-0.35,0.14-0.35,0.35v0.7c0,0.21,0.14,0.35,0.35,0.35s0.35-0.14,0.35-0.35v-0.7
		C466.4,15.163,466.26,15.023,466.05,15.023z"/>
	<path fill="#808080" d="M466.05,21.323c-0.21,0-0.35,0.14-0.35,0.35v0.7c0,0.21,0.14,0.35,0.35,0.35s0.35-0.14,0.35-0.35v-0.7
		C466.4,21.463,466.26,21.323,466.05,21.323z"/>
	<path fill="#808080" d="M466.05,17.123c-0.21,0-0.35,0.14-0.35,0.35v0.7c0,0.21,0.14,0.35,0.35,0.35s0.35-0.14,0.35-0.35v-0.7
		C466.4,17.263,466.26,17.123,466.05,17.123z"/>
	<path fill="#808080" d="M466.05,19.223c-0.21,0-0.35,0.14-0.35,0.35v0.7c0,0.21,0.14,0.35,0.35,0.35s0.35-0.14,0.35-0.35v-0.7
		C466.4,19.363,466.26,19.223,466.05,19.223z"/>
	<path fill="#808080" d="M466.05,12.923c-0.21,0-0.35,0.14-0.35,0.35v0.7c0,0.21,0.14,0.35,0.35,0.35s0.35-0.14,0.35-0.35v-0.7
		C466.4,13.063,466.26,12.923,466.05,12.923z"/>
	<path fill="#808080" d="M468.15,16.423c0.21,0,0.35-0.14,0.35-0.35v-0.7c0-0.21-0.14-0.35-0.35-0.35s-0.35,0.14-0.35,0.35v0.7
		C467.8,16.283,467.94,16.423,468.15,16.423z"/>
	<path fill="#808080" d="M468.15,14.323c0.21,0,0.35-0.14,0.35-0.35v-0.7c0-0.21-0.14-0.35-0.35-0.35s-0.35,0.14-0.35,0.35v0.7
		C467.8,14.183,467.94,14.323,468.15,14.323z"/>
	<path fill="#808080" d="M468.15,18.523c0.21,0,0.35-0.14,0.35-0.35v-0.7c0-0.21-0.14-0.35-0.35-0.35s-0.35,0.14-0.35,0.35v0.7
		C467.8,18.383,467.94,18.523,468.15,18.523z"/>
	<path fill="#808080" d="M468.15,20.623c0.21,0,0.35-0.14,0.35-0.35v-0.7c0-0.21-0.14-0.35-0.35-0.35s-0.35,0.14-0.35,0.35v0.7
		C467.8,20.483,467.94,20.623,468.15,20.623z"/>
	<path fill="#808080" d="M468.15,22.723c0.21,0,0.35-0.14,0.35-0.35v-0.7c0-0.21-0.14-0.35-0.35-0.35s-0.35,0.14-0.35,0.35v0.7
		C467.8,22.583,467.94,22.723,468.15,22.723z"/>
	<path fill="#808080" d="M470.25,18.523c0.21,0,0.35-0.14,0.35-0.35v-0.7c0-0.21-0.14-0.35-0.35-0.35s-0.35,0.14-0.35,0.35v0.7
		C469.9,18.383,470.04,18.523,470.25,18.523z"/>
	<path fill="#808080" d="M470.25,16.423c0.21,0,0.35-0.14,0.35-0.35v-0.7c0-0.21-0.14-0.35-0.35-0.35s-0.35,0.14-0.35,0.35v0.7
		C469.9,16.283,470.04,16.423,470.25,16.423z"/>
	<path fill="#808080" d="M470.25,22.723c0.21,0,0.35-0.14,0.35-0.35v-0.7c0-0.21-0.14-0.35-0.35-0.35s-0.35,0.14-0.35,0.35v0.7
		C469.9,22.583,470.04,22.723,470.25,22.723z"/>
	<path fill="#808080" d="M470.25,20.623c0.21,0,0.35-0.14,0.35-0.35v-0.7c0-0.21-0.14-0.35-0.35-0.35s-0.35,0.14-0.35,0.35v0.7
		C469.9,20.483,470.04,20.623,470.25,20.623z"/>
	<path fill="#808080" d="M470.25,14.323c0.21,0,0.35-0.14,0.35-0.35v-0.7c0-0.21-0.14-0.35-0.35-0.35s-0.35,0.14-0.35,0.35v0.7
		C469.9,14.183,470.04,14.323,470.25,14.323z"/>
	<path fill="#808080" d="M458.35,19.223c0.21,0,0.35-0.14,0.35-0.35v-0.7c0-0.21-0.14-0.35-0.35-0.35s-0.35,0.14-0.35,0.35v0.7
		C458,19.083,458.14,19.223,458.35,19.223z"/>
	<path fill="#808080" d="M458.35,21.323c0.21,0,0.35-0.14,0.35-0.35v-0.7c0-0.21-0.14-0.35-0.35-0.35s-0.35,0.14-0.35,0.35v0.7
		C458,21.183,458.14,21.323,458.35,21.323z"/>
	<path fill="#808080" d="M458.35,23.423c0.21,0,0.35-0.14,0.35-0.35v-0.7c0-0.21-0.14-0.35-0.35-0.35s-0.35,0.14-0.35,0.35v0.7
		C458,23.283,458.14,23.423,458.35,23.423z"/>
	<path fill="#808080" d="M458.35,8.723c0.21,0,0.35-0.14,0.35-0.35v-0.7c0-0.21-0.14-0.35-0.35-0.35S458,7.463,458,7.673v0.7
		C458,8.583,458.14,8.723,458.35,8.723z"/>
	<path fill="#808080" d="M458.35,10.823c0.21,0,0.35-0.14,0.35-0.35v-0.7c0-0.21-0.14-0.35-0.35-0.35S458,9.563,458,9.773v0.7
		C458,10.683,458.14,10.823,458.35,10.823z"/>
	<path fill="#808080" d="M458.35,12.923c0.21,0,0.35-0.14,0.35-0.35v-0.7c0-0.21-0.14-0.35-0.35-0.35s-0.35,0.14-0.35,0.35v0.7
		C458,12.783,458.14,12.923,458.35,12.923z"/>
	<path fill="#808080" d="M458.35,15.023c0.21,0,0.35-0.14,0.35-0.35v-0.7c0-0.21-0.14-0.35-0.35-0.35s-0.35,0.14-0.35,0.35v0.7
		C458,14.883,458.14,15.023,458.35,15.023z"/>
	<path fill="#808080" d="M458.35,17.123c0.21,0,0.35-0.14,0.35-0.35v-0.7c0-0.21-0.14-0.35-0.35-0.35s-0.35,0.14-0.35,0.35v0.7
		C458,16.983,458.14,17.123,458.35,17.123z"/>
	<path fill="#808080" d="M460.45,10.823c0.21,0,0.35-0.14,0.35-0.35v-0.7c0-0.21-0.14-0.35-0.35-0.35s-0.35,0.14-0.35,0.35v0.7
		C460.1,10.683,460.24,10.823,460.45,10.823z"/>
	<path fill="#808080" d="M460.45,8.723c0.21,0,0.35-0.14,0.35-0.35v-0.7c0-0.21-0.14-0.35-0.35-0.35s-0.35,0.14-0.35,0.35v0.7
		C460.1,8.583,460.24,8.723,460.45,8.723z"/>
	<path fill="#808080" d="M460.45,15.023c0.21,0,0.35-0.14,0.35-0.35v-0.7c0-0.21-0.14-0.35-0.35-0.35s-0.35,0.14-0.35,0.35v0.7
		C460.1,14.883,460.24,15.023,460.45,15.023z"/>
	<path fill="#808080" d="M460.45,12.923c0.21,0,0.35-0.14,0.35-0.35v-0.7c0-0.21-0.14-0.35-0.35-0.35s-0.35,0.14-0.35,0.35v0.7
		C460.1,12.783,460.24,12.923,460.45,12.923z"/>
	<path fill="#808080" d="M460.45,17.123c0.21,0,0.35-0.14,0.35-0.35v-0.7c0-0.21-0.14-0.35-0.35-0.35s-0.35,0.14-0.35,0.35v0.7
		C460.1,16.983,460.24,17.123,460.45,17.123z"/>
	<path fill="#808080" d="M460.45,19.223c0.21,0,0.35-0.14,0.35-0.35v-0.7c0-0.21-0.14-0.35-0.35-0.35s-0.35,0.14-0.35,0.35v0.7
		C460.1,19.083,460.24,19.223,460.45,19.223z"/>
	<path fill="#808080" d="M460.45,21.323c0.21,0,0.35-0.14,0.35-0.35v-0.7c0-0.21-0.14-0.35-0.35-0.35s-0.35,0.14-0.35,0.35v0.7
		C460.1,21.183,460.24,21.323,460.45,21.323z"/>
	<path fill="#808080" d="M462.55,12.923c0.21,0,0.35-0.14,0.35-0.35v-0.7c0-0.21-0.14-0.35-0.35-0.35s-0.35,0.14-0.35,0.35v0.7
		C462.2,12.783,462.34,12.923,462.55,12.923z"/>
	<path fill="#808080" d="M462.55,10.823c0.21,0,0.35-0.14,0.35-0.35v-0.7c0-0.21-0.14-0.35-0.35-0.35s-0.35,0.14-0.35,0.35v0.7
		C462.2,10.683,462.34,10.823,462.55,10.823z"/>
	<path fill="#808080" d="M462.55,8.723c0.21,0,0.35-0.14,0.35-0.35v-0.7c0-0.21-0.14-0.35-0.35-0.35s-0.35,0.14-0.35,0.35v0.7
		C462.2,8.583,462.34,8.723,462.55,8.723z"/>
	<path fill="#808080" d="M462.55,21.323c0.21,0,0.35-0.14,0.35-0.35v-0.7c0-0.21-0.14-0.35-0.35-0.35s-0.35,0.14-0.35,0.35v0.7
		C462.2,21.183,462.34,21.323,462.55,21.323z"/>
	<path fill="#808080" d="M462.55,19.223c0.21,0,0.35-0.14,0.35-0.35v-0.7c0-0.21-0.14-0.35-0.35-0.35s-0.35,0.14-0.35,0.35v0.7
		C462.2,19.083,462.34,19.223,462.55,19.223z"/>
	<path fill="#808080" d="M462.55,17.123c0.21,0,0.35-0.14,0.35-0.35v-0.7c0-0.21-0.14-0.35-0.35-0.35s-0.35,0.14-0.35,0.35v0.7
		C462.2,16.983,462.34,17.123,462.55,17.123z"/>
	<path fill="#808080" d="M462.55,15.023c0.21,0,0.35-0.14,0.35-0.35v-0.7c0-0.21-0.14-0.35-0.35-0.35s-0.35,0.14-0.35,0.35v0.7
		C462.2,14.883,462.34,15.023,462.55,15.023z"/>
	<path fill="#808080" d="M464.65,10.823c0.21,0,0.35-0.14,0.35-0.35v-0.7c0-0.21-0.14-0.35-0.35-0.35s-0.35,0.14-0.35,0.35v0.7
		C464.3,10.683,464.44,10.823,464.65,10.823z"/>
	<path fill="#808080" d="M464.65,8.723c0.21,0,0.35-0.14,0.35-0.35v-0.7c0-0.21-0.14-0.35-0.35-0.35s-0.35,0.14-0.35,0.35v0.7
		C464.3,8.583,464.44,8.723,464.65,8.723z"/>
</g>
<g>
	<path fill="#808080" d="M464.3,57.35c-0.169,0-0.33-0.069-0.446-0.192c-0.323-0.345-7.913-8.487-7.913-12.982
		c0-4.635,3.75-8.406,8.359-8.406c4.608,0,8.359,3.771,8.359,8.406c0,4.496-7.589,12.638-7.913,12.982
		C464.63,57.28,464.468,57.35,464.3,57.35z M464.3,37.002c-3.933,0-7.133,3.218-7.133,7.173c0,3.112,4.79,9.058,7.133,11.651
		c2.343-2.594,7.133-8.538,7.133-11.651C471.433,40.219,468.233,37.002,464.3,37.002z"/>
	<path fill="#808080" d="M464.3,46.806c-1.95,0-3.536-1.594-3.536-3.555c0-1.96,1.586-3.556,3.536-3.556
		c1.949,0,3.536,1.596,3.536,3.556C467.835,45.211,466.25,46.806,464.3,46.806z M464.3,40.928c-1.274,0-2.31,1.042-2.31,2.322
		c0,1.281,1.036,2.323,2.31,2.323c1.273,0,2.309-1.041,2.309-2.323C466.609,41.97,465.573,40.928,464.3,40.928z"/>
</g>
<g>
	<path fill="#808080" d="M507.75,13.816l-12.226-10.91c-0.021-0.021-0.043-0.037-0.069-0.053c-0.267-0.256-0.695-0.267-0.978-0.016
		l-12.226,10.909c-0.299,0.267-0.321,0.72-0.059,1.019c0.144,0.16,0.342,0.24,0.54,0.24c0.171,0,0.342-0.059,0.481-0.181
		l2.201-1.968v0.384v5.695v6.644c0,0.997,0.812,1.813,1.817,1.813c0.016,0,0.027,0,0.043,0s0.027,0,0.043,0h3.772
		c0.94,0,1.705-0.763,1.705-1.701v-6.468c0-0.144,0.118-0.262,0.262-0.262h3.895c0.144,0,0.262,0.117,0.262,0.262v6.468
		c0,0.938,0.764,1.701,1.704,1.701h3.858c1.015,0,1.817-0.997,1.817-2.271v-5.929v-1.813v-4.453l2.201,1.968
		c0.139,0.123,0.31,0.181,0.481,0.181c0.198,0,0.395-0.08,0.54-0.24C508.07,14.536,508.044,14.083,507.75,13.816z M503.144,17.373
		v1.813v5.924c0,0.517-0.257,0.832-0.374,0.832h-3.858c-0.144,0-0.262-0.118-0.262-0.262v-6.457c0-0.939-0.764-1.701-1.704-1.701
		h-3.896c-0.94,0-1.704,0.763-1.704,1.701v6.468c0,0.144-0.118,0.261-0.262,0.261h-3.772c-0.016,0-0.027,0-0.043,0s-0.027,0-0.043,0
		c-0.203,0-0.374-0.165-0.374-0.373V18.93v-5.695v-1.669l8.111-7.23l8.181,7.299V17.373L503.144,17.373z"/>
</g>
<g>
	<path fill="#808080" d="M499.967,41.759l4.418,1.161l1.114-4.419l-0.849-0.223l-0.724,2.756c-1.852-2.987-5.156-4.976-8.927-4.976
		c-5.799,0-10.5,4.701-10.5,10.5s4.701,10.5,10.5,10.5c3.87,0,7.247-2.092,9.069-5.207l-0.759-0.411
		c-1.676,2.846-4.77,4.757-8.31,4.757c-5.323,0-9.638-4.316-9.638-9.638s4.316-9.638,9.638-9.638c3.57,0,6.69,1.941,8.353,4.83
		l-3.163-0.84L499.967,41.759z"/>
	<path fill="#808080" d="M495.463,51.218v-0.801c0.759-0.043,1.337-0.266,1.783-0.668c0.446-0.403,0.669-0.939,0.669-1.56
		c0-0.668-0.18-1.161-0.579-1.474c-0.403-0.356-0.981-0.626-1.83-0.801h-0.043v-2.053c0.579,0.09,1.071,0.266,1.56,0.626
		l0.716-0.982c-0.716-0.493-1.474-0.758-2.276-0.801v-0.535h-0.668v0.535c-0.669,0.043-1.251,0.266-1.697,0.669
		c-0.446,0.403-0.669,0.939-0.669,1.56c0,0.621,0.18,1.114,0.578,1.427c0.356,0.313,0.982,0.578,1.783,0.758v2.096
		c-0.626-0.09-1.252-0.403-1.873-0.939l-0.801,0.939c0.801,0.716,1.697,1.114,2.679,1.204v0.801L495.463,51.218L495.463,51.218z
		 M495.506,47.335c0.446,0.133,0.716,0.266,0.891,0.403c0.133,0.18,0.223,0.356,0.223,0.626s-0.09,0.446-0.313,0.626
		s-0.493,0.266-0.801,0.313V47.335z M493.946,45.419c-0.133-0.133-0.223-0.356-0.223-0.578c0-0.266,0.09-0.446,0.266-0.626
		c0.223-0.18,0.446-0.265,0.801-0.313v1.92C494.344,45.685,494.079,45.552,493.946,45.419z"/>
</g>
<g>
	<path fill="#808080" d="M533.565,52.583l-16.62-17.015c-0.103-0.106-0.258-0.138-0.394-0.08c-0.135,0.057-0.223,0.192-0.223,0.342
		v17.015c0,0.204,0.162,0.37,0.361,0.37h16.62c0.146,0,0.278-0.09,0.334-0.229C533.7,52.848,533.669,52.689,533.565,52.583z
		 M517.051,52.475V36.723l1.657,1.696l-0.468,0.479c-0.141,0.144-0.141,0.379,0,0.523c0.071,0.072,0.163,0.108,0.256,0.108
		c0.092,0,0.185-0.036,0.255-0.108l0.468-0.479l0.934,0.956l-0.468,0.479c-0.141,0.144-0.141,0.379,0,0.523
		c0.071,0.072,0.163,0.108,0.256,0.108s0.185-0.036,0.255-0.108l0.468-0.479l0.934,0.956l-0.468,0.479
		c-0.141,0.144-0.141,0.379,0,0.523c0.071,0.072,0.163,0.108,0.256,0.108s0.185-0.036,0.255-0.108l0.468-0.479l0.934,0.956
		l-0.468,0.479c-0.141,0.144-0.141,0.379,0,0.523c0.071,0.072,0.163,0.108,0.256,0.108c0.093,0,0.185-0.036,0.255-0.108l0.468-0.479
		l0.934,0.956l-0.468,0.479c-0.141,0.144-0.141,0.379,0,0.523c0.071,0.072,0.163,0.108,0.256,0.108c0.092,0,0.185-0.036,0.255-0.108
		L525,44.86l0.934,0.957l-0.468,0.479c-0.141,0.144-0.141,0.379,0,0.523c0.071,0.072,0.163,0.108,0.256,0.108
		c0.092,0,0.185-0.036,0.255-0.108l0.468-0.479l0.934,0.957l-0.468,0.479c-0.141,0.144-0.141,0.379,0,0.523
		c0.071,0.072,0.163,0.108,0.256,0.108c0.092,0,0.185-0.036,0.255-0.108l0.468-0.479l0.934,0.956l-0.468,0.479
		c-0.141,0.144-0.141,0.379,0,0.523c0.071,0.072,0.163,0.108,0.256,0.108c0.093,0,0.185-0.036,0.255-0.108l0.468-0.479l0.934,0.957
		l-0.468,0.479c-0.141,0.144-0.141,0.379,0,0.523c0.071,0.072,0.163,0.108,0.256,0.108c0.093,0,0.185-0.036,0.255-0.108l0.468-0.479
		l1.657,1.696H517.051L517.051,52.475z"/>
	<path fill="#808080" d="M524.894,48.884l-4.336-4.439c-0.103-0.105-0.258-0.138-0.394-0.08c-0.135,0.057-0.223,0.192-0.223,0.342
		v4.439c0,0.204,0.162,0.37,0.361,0.37h4.336c0.146,0,0.278-0.09,0.334-0.229C525.029,49.149,524.998,48.99,524.894,48.884z
		 M520.664,48.776V45.6l3.102,3.176C523.766,48.776,520.664,48.776,520.664,48.776z"/>
</g>
<g>
	<path fill="#808080" d="M525,6.423c-5.514,0-10,4.486-10,10s4.486,10,10,10c3.1,0,5.974-1.403,7.884-3.848
		c0.138-0.177,0.107-0.433-0.07-0.571c-0.177-0.139-0.433-0.107-0.571,0.07c-1.755,2.246-4.395,3.535-7.243,3.535
		c-5.065,0-9.186-4.121-9.186-9.186s4.121-9.186,9.186-9.186s9.186,4.121,9.186,9.186c0,0.225,0.182,0.407,0.407,0.407
		S535,16.648,535,16.423C535,10.909,530.514,6.423,525,6.423z"/>
	<path fill="#808080" d="M524.836,22.629c0.027,0.005,0.053,0.008,0.08,0.008c0.162,0,0.312-0.097,0.376-0.251l4.289-10.356
		c0.063-0.152,0.028-0.327-0.088-0.443s-0.291-0.151-0.443-0.088l-10.356,4.29c-0.18,0.074-0.281,0.265-0.244,0.456
		c0.038,0.191,0.205,0.328,0.399,0.328h5.659v5.659C524.508,22.423,524.645,22.591,524.836,22.629z M520.895,15.756l7.558-3.131
		l-3.131,7.558v-4.02c0-0.224-0.182-0.407-0.407-0.407L520.895,15.756L520.895,15.756z"/>
</g>
<g>
	<path fill="#808080" d="M545.5,47.5h1v7h-1V47.5z"/>
	<path fill="#808080" d="M551.5,41.5h1v7h-1V41.5z"/>
	<path fill="#808080" d="M557.5,35.5h1v7h-1V35.5z"/>
	<path fill="#808080" d="M545.5,47.5h7v1h-7V47.5z"/>
	<path fill="#808080" d="M557.5,35.5h7v1h-7V35.5z"/>
	<path fill="#808080" d="M551.5,41.5h7v1h-7V41.5z"/>
</g>
<path fill="none" stroke="#DBDBDB" stroke-width="0.5" stroke-miterlimit="10" d="M322.5,111.131c0,0.756-0.613,1.369-1.369,1.369
	h-42.262c-0.756,0-1.369-0.613-1.369-1.369V68.869c0-0.756,0.613-1.369,1.369-1.369h42.262c0.756,0,1.369,0.613,1.369,1.369V111.131
	z"/>
<g>
	<g>
		<path fill="#0D5A84" d="M360,107.5c-9.65,0-17.5-7.85-17.5-17.5s7.85-17.5,17.5-17.5s17.5,7.85,17.5,17.5S369.65,107.5,360,107.5z
			 M360,73.54c-9.076,0-16.46,7.384-16.46,16.46s7.384,16.46,16.46,16.46s16.46-7.384,16.46-16.46S369.076,73.54,360,73.54z"/>
	</g>
	<g>
		<path fill="#0D5A84" d="M361.348,95.611c-0.133,0-0.266-0.051-0.368-0.152l-5.091-5.091c-0.098-0.097-0.152-0.229-0.152-0.368
			c0-0.138,0.055-0.27,0.152-0.368l5.091-5.091c0.203-0.203,0.532-0.203,0.735,0s0.203,0.532,0,0.735L356.992,90l4.724,4.723
			c0.203,0.203,0.203,0.532,0,0.735C361.614,95.56,361.481,95.611,361.348,95.611z"/>
	</g>
</g>
<g>
	<g>
		<path fill="#0D5A84" d="M401.808,90c0-9.65,7.85-17.5,17.5-17.5s17.5,7.85,17.5,17.5c0,9.649-7.85,17.5-17.5,17.5
			S401.808,99.65,401.808,90z M402.848,90c0,9.076,7.384,16.46,16.46,16.46s16.46-7.384,16.46-16.46s-7.384-16.46-16.46-16.46
			S402.848,80.924,402.848,90z"/>
	</g>
	<g>
		<path fill="#0D5A84" d="M417.96,95.611c0.133,0,0.266-0.051,0.368-0.152l5.091-5.091c0.098-0.097,0.152-0.229,0.152-0.368
			c0-0.138-0.055-0.27-0.152-0.368l-5.091-5.091c-0.203-0.203-0.532-0.203-0.735,0s-0.203,0.532,0,0.735L422.316,90l-4.724,4.723
			c-0.203,0.203-0.203,0.532,0,0.735C417.694,95.56,417.827,95.611,417.96,95.611z"/>
	</g>
</g>
<path fill="#0D5A84" d="M462.5,90c0-9.65,7.85-17.5,17.5-17.5s17.5,7.85,17.5,17.5c0,9.649-7.85,17.5-17.5,17.5
	S462.5,99.65,462.5,90z"/>
<path fill="#909090" d="M540,75.559c-8.008,0-14.5,5.969-14.5,13.331c0,4.164,2.077,7.882,5.33,10.327v5.223l4.631-2.885
	c1.428,0.432,2.953,0.667,4.538,0.667c8.008,0,14.5-5.969,14.5-13.331C554.5,81.528,548.008,75.559,540,75.559z M541.552,93.43
	v0.003l-0.001-0.001l-0.001,0.001l-0.069-0.072l-3.744-3.744l-6.868,3.816l7.584-8.395l3.813,3.816l6.868-3.816L541.552,93.43z"/>
<path fill="#FFFFFF" d="M577.269,19.006c2.574,3.065,5.673,5.479,9.21,7.187c1.346,0.636,3.147,1.39,5.154,1.519
	c0.124,0.005,0.243,0.011,0.368,0.011c1.346,0,2.428-0.463,3.31-1.417c0.005-0.006,0.016-0.016,0.022-0.027
	c0.314-0.377,0.671-0.716,1.044-1.077c0.254-0.242,0.514-0.496,0.762-0.754c1.152-1.196,1.152-2.715-0.011-3.874l-3.25-3.238
	c-0.552-0.571-1.211-0.873-1.904-0.873c-0.692,0-1.357,0.302-1.925,0.867l-1.936,1.929c-0.179-0.102-0.362-0.194-0.535-0.28
	c-0.216-0.108-0.417-0.21-0.595-0.324c-1.763-1.115-3.364-2.57-4.894-4.439c-0.773-0.975-1.293-1.794-1.655-2.629
	c0.508-0.458,0.984-0.937,1.444-1.406c0.162-0.167,0.33-0.334,0.497-0.501c0.584-0.582,0.898-1.255,0.898-1.939
	s-0.308-1.357-0.898-1.939l-1.612-1.605c-0.189-0.189-0.368-0.372-0.552-0.56c-0.357-0.366-0.73-0.743-1.098-1.083
	c-0.557-0.544-1.211-0.83-1.903-0.83c-0.687,0-1.347,0.286-1.925,0.835l-2.022,2.015c-0.736,0.733-1.152,1.622-1.239,2.651
	c-0.103,1.288,0.135,2.656,0.752,4.31C573.721,14.093,575.149,16.469,577.269,19.006z M573.343,7.337
	c0.065-0.716,0.341-1.314,0.86-1.832l2.012-2.004c0.314-0.302,0.66-0.458,0.995-0.458c0.33,0,0.665,0.157,0.973,0.469
	c0.362,0.334,0.703,0.684,1.071,1.056c0.184,0.188,0.373,0.377,0.562,0.571l1.612,1.605c0.335,0.334,0.508,0.673,0.508,1.008
	c0,0.334-0.173,0.673-0.508,1.007c-0.168,0.167-0.335,0.339-0.503,0.506c-0.503,0.507-0.973,0.986-1.492,1.444
	c-0.011,0.011-0.016,0.016-0.027,0.027c-0.449,0.447-0.379,0.873-0.27,1.196c0.005,0.016,0.011,0.027,0.016,0.043
	c0.417,0.997,0.995,1.945,1.898,3.076c1.622,1.993,3.331,3.54,5.213,4.73c0.233,0.151,0.481,0.269,0.714,0.388
	c0.216,0.108,0.416,0.21,0.595,0.323c0.022,0.011,0.038,0.022,0.06,0.032c0.178,0.092,0.351,0.134,0.525,0.134
	c0.433,0,0.714-0.275,0.806-0.366l2.022-2.015c0.314-0.312,0.654-0.479,0.99-0.479c0.411,0,0.746,0.253,0.957,0.479l3.261,3.243
	c0.649,0.646,0.644,1.347-0.016,2.031c-0.227,0.242-0.465,0.474-0.719,0.716c-0.379,0.366-0.773,0.744-1.13,1.169
	c-0.622,0.668-1.363,0.98-2.32,0.98c-0.092,0-0.189-0.005-0.281-0.011c-1.774-0.113-3.423-0.803-4.662-1.39
	c-3.364-1.622-6.316-3.922-8.766-6.842c-2.017-2.419-3.374-4.671-4.272-7.085C573.467,9.61,573.256,8.42,573.343,7.337z"/>
<g>
	<path fill="#FFFFFF" d="M585.003,31.754c-8.001,0-14.503,5.732-14.503,12.777c0,2.783,1.042,5.508,2.943,7.718
		c-0.397,0.875-0.977,1.566-1.735,2.057c-0.391,0.254-0.581,0.715-0.48,1.17c0.101,0.449,0.462,0.78,0.924,0.845
		c0.456,0.065,0.924,0.094,1.38,0.094c1.469,0,2.807-0.313,3.985-0.933c2.256,1.2,4.832,1.832,7.48,1.832
		c8,0,14.503-5.732,14.503-12.777S593.003,31.754,585.003,31.754z M585.003,55.859c-2.54,0-5.004-0.638-7.124-1.844
		c-0.112-0.065-0.237-0.095-0.361-0.095c-0.13,0-0.26,0.035-0.373,0.101c-1.113,0.667-2.452,0.987-3.909,0.934
		c0.764-0.686,1.344-1.554,1.735-2.6c0.095-0.254,0.036-0.544-0.148-0.745c-1.883-2.027-2.872-4.474-2.872-7.08
		c0-6.246,5.857-11.329,13.052-11.329s13.052,5.082,13.052,11.329S592.198,55.859,585.003,55.859z"/>
	<path fill="#FFFFFF" d="M584.997,43.603c0.513,0,0.93,0.415,0.93,0.928c0,0.512-0.416,0.928-0.93,0.928s-0.93-0.415-0.93-0.928
		S584.484,43.603,584.997,43.603z"/>
	<path fill="#FFFFFF" d="M580.994,43.603c0.513,0,0.93,0.415,0.93,0.928c0,0.512-0.416,0.928-0.93,0.928s-0.93-0.415-0.93-0.928
		C580.063,44.018,580.479,43.603,580.994,43.603z"/>
	<path fill="#FFFFFF" d="M589,43.603c0.513,0,0.93,0.415,0.93,0.928c0,0.512-0.416,0.928-0.93,0.928s-0.93-0.415-0.93-0.928
		S588.487,43.603,589,43.603z"/>
</g>
<g>
	<path fill="#425163" d="M672.168,13.066c0.044,0,2.578,0.012,2.804-0.018c1.046-0.134,1.151-1.819-0.272-1.824
		c-0.27-0.001-2.355-0.01-2.623,0.015C670.881,11.344,670.993,13.053,672.168,13.066z"/>
	<path fill="#425163" d="M677.579,16.785c-1.773-0.001-3.545,0-5.319,0.001c-1.413,0-1.303,1.819-0.103,1.828
		c0.708,0.005,5.342,0.001,5.389,0.001C678.889,18.615,678.845,16.785,677.579,16.785z"/>
	<path fill="#425163" d="M662.44,2.757v24.966h14.938h3.313h6.751V2.757H662.44z M682.14,19.738
		c-0.815,1.783-2.489,2.775-4.024,2.875c-0.232,0.015-0.466,0.016-0.699,0.018c-0.043,0-5.046,0.004-5.58-0.003
		c-0.586-0.008-1.15-0.152-1.687-0.388c-1.856-0.82-2.88-2.563-2.938-4.164c-0.032-0.876-0.018-5.293-0.014-6.02
		c0.014-2.233,1.561-4.077,3.589-4.642c0.868-0.242,4.566-0.291,5.469,0.007c1.397,0.461,2.898,1.648,3.288,3.204
		c0.306,1.223,0.107,2.264,0.886,2.371c0.831,0.112,1.079,0.068,1.503,0.113c0.438,0.047,0.65,0.429,0.653,0.804
		C682.626,18.279,682.578,18.78,682.14,19.738z"/>
</g>
<g>
	<path fill="#425163" d="M692.499,2.757v24.966h14.938h3.313h6.751V2.757H692.499z M700.421,23.114h-3.405V12.17h3.405V23.114z
		 M698.718,10.675c-1.092,0-1.974-0.885-1.974-1.973s0.883-1.971,1.974-1.971c1.088,0,1.973,0.883,1.973,1.971
		C700.691,9.79,699.806,10.675,698.718,10.675z M713.165,23.114h-3.399v-5.321c0-1.269-0.026-2.903-1.768-2.903
		c-1.772,0-2.042,1.383-2.042,2.809v5.414h-3.399V12.17h3.263v1.496h0.047c0.454-0.861,1.564-1.768,3.22-1.768
		c3.443,0,4.079,2.265,4.079,5.213L713.165,23.114L713.165,23.114z"/>
</g>
<g>
	<path fill="#425163" d="M632.499,2.517v24.966h14.938h3.313h6.751V2.517H632.499z M653.562,9.662
		c-0.394,0.486-0.846,0.913-1.349,1.282c-0.043,0.032-0.064,0.063-0.062,0.117c0.019,0.551-0.001,1.102-0.069,1.649
		c-0.143,1.153-0.466,2.254-0.957,3.305c-0.51,1.085-1.173,2.067-2.007,2.928c-1.413,1.462-3.119,2.405-5.102,2.842
		c-0.68,0.15-1.372,0.227-2.068,0.246c-2.142,0.063-4.12-0.469-5.941-1.594c-0.023-0.014-0.047-0.031-0.088-0.057
		c1.295,0.139,2.528-0.027,3.714-0.513c0.629-0.258,1.213-0.597,1.765-1.028c-1.928-0.068-3.135-1.452-3.454-2.577
		c0.537,0.102,1.068,0.082,1.593-0.048c0.013-0.002,0.027-0.012,0.053-0.025c-1.045-0.243-1.851-0.802-2.412-1.703
		c-0.371-0.598-0.549-1.254-0.543-1.974c0.522,0.279,1.068,0.435,1.653,0.45c-0.787-0.566-1.313-1.307-1.529-2.253
		c-0.215-0.944-0.075-1.843,0.398-2.689c2.012,2.368,4.554,3.665,7.657,3.879c-0.021-0.147-0.044-0.275-0.059-0.406
		c-0.103-0.873,0.07-1.688,0.543-2.428c0.589-0.926,1.433-1.503,2.518-1.678c1.248-0.205,2.338,0.151,3.249,1.035
		c0.063,0.059,0.113,0.078,0.199,0.059c0.762-0.166,1.482-0.441,2.159-0.831c0.017-0.009,0.032-0.018,0.05-0.025
		c0.003-0.002,0.008-0.002,0.024-0.002c-0.294,0.864-0.828,1.528-1.59,2.02c0.72-0.078,1.406-0.269,2.067-0.556
		c0.008,0.006,0.012,0.012,0.017,0.017C653.846,9.29,653.709,9.481,653.562,9.662z"/>
</g>
<g>
	<path fill="#425163" d="M602.5,27.484h12.488v-9.886h-3.369v-3.956h3.389v-0.298c-0.001-0.797-0.017-1.591,0.003-2.385
		c0.013-0.507,0.036-1.023,0.123-1.52c0.213-1.208,0.767-2.229,1.779-2.958c0.883-0.633,1.893-0.893,2.959-0.916
		c0.699-0.017,1.399,0.019,2.097,0.05c0.382,0.018,0.762,0.071,1.126,0.108v3.542c-0.114,0-0.198,0-0.281,0
		c-0.683,0.001-1.363-0.016-2.044,0.006c-0.934,0.034-1.624,0.39-1.658,1.555c-0.024,0.851-0.033,2.812-0.033,2.812
		s2.193,0.004,3.148,0c0.242-0.001,0.485,0,0.754,0c-0.176,1.357-0.343,2.66-0.517,3.976h-3.358v9.869h8.394V2.517h-25.001
		L602.5,27.484L602.5,27.484z"/>
</g>
<path fill="#FFFFFF" d="M624.545,40.545h1.272v-6.364h-7v1.273h5.728V40.545z M600.999,31v28h28V31H600.999z M627.726,57.728
	h-25.454V32.272h25.454V57.728z M611.181,54.546h-5.727v-5.091h-1.273v6.364h7V54.546z"/>
</svg>
